<?xml version="1.0" encoding="utf-8"?>
<!-- Generator: Adobe Illustrator 27.7.0, SVG Export Plug-In . SVG Version: 6.00 Build 0)  -->
<svg version="1.1" id="Layer_1" xmlns="http://www.w3.org/2000/svg" xmlns:xlink="http://www.w3.org/1999/xlink" x="0px" y="0px"
	 viewBox="0 0 481 272.2" style="enable-background:new 0 0 481 272.2;" xml:space="preserve">
<style type="text/css">
	.st0{fill:#FFFF00;}
</style>
<g>
	<path class="st0" d="M136.1,11c22.3,0,44.2,6,63.3,17.4c18.5,11,33.9,26.8,44.8,45.6l3.2,5.5h6.4h169.7l45.9,58.9l-46.6,55.5
		l-22-29.5l0,0l0,0c-3.7-4.9-9.4-7.8-15.6-7.8c-6.1,0-11.7,2.8-15.4,7.6l-20,26l-20.2-24.6c-3.7-4.6-9.1-7.3-15.1-7.3
		c-5.6,0-10.9,2.4-14.6,6.6l-25.4,28.6h-21.3h-6.3l-3.2,5.5c-10.9,18.6-26.3,34.2-44.7,45.1c-19,11.3-40.7,17.2-62.9,17.2
		c-33.4,0-64.9-13-88.5-36.6S11,169.5,11,136.1s13-64.9,36.6-88.5S102.7,11,136.1,11 M103.1,190.4c30.7,0,55.7-25,55.7-55.7
		S133.8,79,103.1,79s-55.7,25-55.7,55.7S72.4,190.4,103.1,190.4 M136.1,0C60.9,0,0,60.9,0,136.1s60.9,136.1,136.1,136.1
		c50.2,0,93.5-27.4,117.1-67.8h22.4c2.4,0,4.7-1,6.3-2.8l26.2-29.5c1.7-1.9,4-2.9,6.3-2.9c2.4,0,4.9,1.1,6.5,3.2l22.3,27.2
		c1.7,2.1,4.1,3.1,6.5,3.1c2.5,0,5-1.1,6.7-3.3l22-28.5c1.7-2.2,4.2-3.3,6.7-3.3c2.5,0,5.1,1.1,6.8,3.4l23.9,32.1
		c1.7,2.3,4.2,3.4,6.8,3.4c2.4,0,4.7-1,6.4-3l50-59.5c2.6-3.1,2.7-7.5,0.2-10.7l-47.9-61.4c-1.6-2.1-4.1-3.3-6.7-3.3H253.7
		C230.2,27.8,186.6,0,136.1,0L136.1,0z M103.1,179.4c-24.7,0-44.7-20-44.7-44.7S78.4,90,103.1,90s44.7,20,44.7,44.7
		S127.8,179.4,103.1,179.4L103.1,179.4z"/>
</g>
</svg>
