<?xml version="1.0" encoding="utf-8"?>
<!-- Generator: Adobe Illustrator 27.1.1, SVG Export Plug-In . SVG Version: 6.00 Build 0)  -->
<svg version="1.1" id="Layer_1" xmlns="http://www.w3.org/2000/svg" xmlns:xlink="http://www.w3.org/1999/xlink" x="0px" y="0px"
	 viewBox="0 0 933.7 349.3" style="enable-background:new 0 0 933.7 349.3;" xml:space="preserve">
<style type="text/css">
	.st0{fill:#000975;stroke:#FFFFFF;stroke-miterlimit:10;}
	.st1{fill:#F1F1F1;}
	.st2{fill:#FFFFFF;}
</style>
<circle class="st0" cx="483" cy="142.8" r="523"/>
<g>
	<g>
		<g>
			<ellipse class="st1" cx="289.6" cy="133.9" rx="35.1" ry="31.7"/>
			<g>
				<g>
					<g>
						<path class="st1" d="M300.8,155.5v20.4h-9.1c-0.6,0.2-1.3,0.3-2,0.3c-0.7,0-1.4-0.1-2-0.3h-9.1v-20.4c1,0.4,1.9,0.8,3,1.1
							c2.6,0.8,5.3,1.2,8.2,1.2c2.9,0,5.6-0.4,8.2-1.2C298.9,156.3,299.9,155.9,300.8,155.5z"/>
						<path class="st1" d="M300.8-65.3v178c-0.5-0.2-1-0.4-1.6-0.6c-3-1.1-6.2-1.6-9.6-1.6c-3.4,0-6.6,0.6-9.6,1.6
							c-0.5,0.2-1,0.4-1.6,0.6v-178H300.8z"/>
						<path class="st1" d="M308.1-39.2h-37c-4.3,0-7.7-3.5-7.7-7.7v-70.7c0-4.3,3.5-7.7,7.7-7.7h37c4.3,0,7.7,3.5,7.7,7.7V-47
							C315.9-42.7,312.4-39.2,308.1-39.2z"/>
					</g>
					<g>
						<path class="st1" d="M265.2,142.8c0.3,0.8,0.7,1.5,1.1,2.2h-199v-20.1h198.1c-0.3,0.6-0.5,1.2-0.8,1.8
							c-0.9,2.3-1.3,4.7-1.3,7.3v0.1C263.4,137.2,264.1,140.1,265.2,142.8z"/>
						<path class="st1" d="M511,124.9V145H312.9c0.4-0.7,0.8-1.5,1.1-2.2c0.5-1.3,1-2.6,1.3-3.9c0.3-1.5,0.5-3.1,0.5-4.7
							c0-2.6-0.5-5.1-1.3-7.4c-0.2-0.6-0.5-1.2-0.8-1.8C313.8,124.9,511,124.9,511,124.9z"/>
						<path class="st1" d="M96.3,119.1v31.8c0,4.3-3.5,7.7-7.7,7.7H8.4c-4.3,0-7.7-3.5-7.7-7.7v-31.8c0-4.3,3.5-7.7,7.7-7.7h80.2
							C92.8,111.3,96.3,114.8,96.3,119.1z"/>
						<path class="st1" d="M566.6,111.3v47.3h-76.5c-3.9,0-7.1-3.2-7.1-7.1v-33c0-3.9,3.2-7.1,7.1-7.1L566.6,111.3L566.6,111.3z"/>
					</g>
					<g>
						<path class="st1" d="M280.1,112.1c-0.5,0.2-1,0.4-1.6,0.6c-5.8,2.5-10.5,6.8-13,12.2c-0.3,0.6-0.5,1.2-0.8,1.8l-1.5-1.4
							l-0.5-0.4l-0.9-0.8L124.6,0.5l15.8-14.2L159,3.1l32.3,29.1l4.3,3.9L280.1,112.1z"/>
						<path class="st1" d="M350.8,175.9h-31.5l-1.7-1.5l-12.9-11.6l-0.1-0.1l-3.7-3.4l0,0l-1.4-1.2l-1.5-1.4c1-0.3,2-0.7,3-1.1
							c5.2-2.2,9.5-5.9,12.1-10.5c0.4-0.7,0.8-1.5,1.1-2.2l1.5,1.3l1,0.9l0.4,0.3l3.8,3.4l0.1,0.1l12.8,11.5l12.9,11.6L350.8,175.9z
							"/>
						<path class="st1" d="M158.1,7.1l-10.4,9.3c-7.4,6.6-19.3,6.6-26.7,0L80.1-20.4c-7.4-6.6-7.4-17.4,0-24.1l10.4-9.3
							c7.4-6.7,19.3-6.7,26.7,0l40.9,36.8C165.5-10.3,165.5,0.5,158.1,7.1z"/>
					</g>
					<g>
						<path class="st1" d="M281.5,156.6l-2.9,2.6h0l0,0.1l-3.7,3.4l-0.1,0.1l-12.9,11.6h0l-1.7,1.5h-31.5l4.4-4l12.9-11.6l12.8-11.5
							l0.1-0.1l3.8-3.4l0.4-0.3l2.5-2.2c0.4,0.8,0.7,1.5,1.1,2.2c2.5,4.4,6.6,8,11.6,10.3c0.2,0.1,0.4,0.1,0.5,0.2
							C279.5,155.9,280.4,156.3,281.5,156.6z"/>
						<path class="st1" d="M454,1.1l-18,16.2l-17.9,16.1l-14.5,13.1l-4.3,3.9l-84.8,76.4c-0.2-0.6-0.5-1.2-0.8-1.8
							c-1.8-3.8-4.6-7-8.1-9.5c-1.5-1.1-3.1-2-4.9-2.7c-0.5-0.2-1-0.4-1.6-0.6l1.5-1.4l0,0l1.3-1.2l16.6-15L420.3,3.1l18-16.2
							L454,1.1z"/>
						<path class="st1" d="M488.8-53.8l10.4,9.3c7.4,6.7,7.4,17.4,0,24.1l-40.9,36.8c-7.4,6.6-19.3,6.6-26.7,0l-10.4-9.3
							c-7.4-6.7-7.4-17.4,0-24.1l40.9-36.8C469.5-60.4,481.4-60.4,488.8-53.8z"/>
					</g>
					<g>
						<g>
							<path class="st1" d="M359.5,124.9c0-0.5-0.1-0.9-0.2-1.4c-0.1-0.3-0.1-0.6-0.2-0.8c-1.7-8.4-5.2-16.2-10.2-23.1
								c-0.5-0.8-1.1-1.5-1.7-2.2c-0.6-0.8-1.2-1.5-1.8-2.2c-3.9-4.6-8.6-8.7-13.8-12.1c-0.7-0.5-1.4-0.9-2.2-1.4
								c-7.7-4.7-16.5-8.2-25.9-9.8c-0.9-0.2-1.8-0.3-2.8-0.4c-3.6-0.6-7.4-0.8-11.1-0.8s-7.5,0.3-11.2,0.8
								c-0.9,0.1-1.9,0.3-2.8,0.4c-9.5,1.7-18.2,5.1-25.9,9.8c-0.7,0.4-1.4,0.9-2.1,1.4c-6,4-11.3,8.8-15.6,14.3
								c-0.6,0.7-1.1,1.5-1.7,2.2c-4.9,6.9-8.5,14.7-10.2,23.1c-0.1,0.8-0.3,1.5-0.4,2.3c-0.5,3-0.8,6.1-0.8,9.2
								c0,3.7,0.4,7.4,1,10.9c0.1,0.9,0.4,1.8,0.6,2.7c0.2,0.7,0.4,1.3,0.6,2c2.1,7.4,5.5,14.2,10.1,20.3c0.5,0.7,1,1.3,1.5,1.9
								c1.1,1.4,2.3,2.7,3.6,4h51.2c0.6,0.2,1.3,0.3,2,0.3c0.7,0,1.4-0.1,2-0.3h51.2c1.2-1.3,2.4-2.6,3.5-4c0.5-0.6,1-1.3,1.5-1.9
								c5-6.6,8.7-14.2,10.7-22.3c0.2-0.9,0.4-1.8,0.6-2.7c0.7-3.5,1.1-7.2,1.1-10.9C360.2,131,360,127.9,359.5,124.9z M303.5,163.2
								c-0.6,0.2-1.1,0.4-1.7,0.6c-0.3,0.1-0.7,0.2-1,0.3c-3.5,1.1-7.2,1.6-11.1,1.6c-3.9,0-7.7-0.6-11.2-1.6
								c-0.3-0.1-0.7-0.2-1-0.3c-0.6-0.2-1.2-0.4-1.8-0.6c-0.4-0.1-0.8-0.3-1.1-0.5c-0.8-0.3-1.5-0.7-2.2-1
								c-5.9-3-10.7-7.5-13.9-12.9c-0.2-0.4-0.4-0.7-0.6-1.1c-0.2-0.4-0.4-0.8-0.6-1.1c-0.2-0.5-0.5-1.1-0.7-1.6
								c-1-2.5-1.7-5.1-2-7.9c-0.1-0.4-0.1-0.9-0.1-1.3v-0.1c0-0.2,0-0.4,0-0.7c0-0.3,0-0.6,0-1c0-0.5,0-0.9,0-1.4
								c0-0.5,0-0.9,0.1-1.4c0.2-2.2,0.7-4.3,1.4-6.3c0.2-0.6,0.4-1.2,0.6-1.7c0.1-0.2,0.1-0.3,0.2-0.5c0.3-0.7,0.6-1.4,1-2.1
								c3.2-6.2,8.7-11.3,15.4-14.5c0.8-0.4,1.6-0.7,2.4-1c0,0,0,0,0.1,0c0.9-0.3,1.8-0.7,2.7-0.9c3.5-1.1,7.3-1.6,11.2-1.6
								c3.9,0,7.6,0.6,11.1,1.6c0.9,0.3,1.8,0.6,2.7,0.9c0,0,0,0,0,0c0.8,0.3,1.6,0.7,2.4,1.1c2.2,1,4.2,2.3,6.1,3.7
								c3.9,2.9,7.1,6.6,9.3,10.8c0.4,0.7,0.7,1.4,1,2.1c0.1,0.2,0.1,0.3,0.2,0.5c0.2,0.6,0.5,1.2,0.6,1.7c0.7,2,1.2,4.2,1.4,6.3
								c0,0.2,0,0.5,0.1,0.8c0,0.2,0,0.4,0,0.6c0,0.4,0,0.8,0,1.2v0.2c0,0.5,0,0.9,0,1.4c0,1.1-0.2,2.1-0.4,3.2v0.1
								c-0.4,2.1-1,4.2-1.8,6.2c-0.2,0.5-0.4,1.1-0.7,1.6c-0.1,0.4-0.4,0.8-0.5,1.1c-0.2,0.4-0.4,0.8-0.6,1.1
								c-3.5,6.1-9.2,11-16.1,13.9C304.3,162.9,303.9,163.1,303.5,163.2z"/>
							<path class="st1" d="M341.8,127.2c-0.1-0.8-0.3-1.5-0.4-2.3c-1.3-5.8-3.7-11.1-7-16c-1.1-1.6-2.3-3.1-3.6-4.5
								c-3.4-3.8-7.4-7.2-12-9.9c-5.4-3.2-11.4-5.6-18-6.8c-3.6-0.7-7.3-1.1-11.1-1.1c-3.8,0-7.5,0.4-11.2,1.1
								c-6.5,1.3-12.5,3.6-17.9,6.8c-6.2,3.7-11.6,8.6-15.6,14.4c-3.3,4.8-5.8,10.2-7,16c-0.6,3-1,6.1-1,9.2c0,3.7,0.5,7.4,1.4,10.9
								c0,0,0,0,0,0c1.4,5.6,4,10.7,7.4,15.3c1.7,2.3,3.7,4.5,5.8,6.6c3,2.8,6.4,5.4,10.1,7.4h0c1,0.6,1.9,1.1,3,1.5h22.9
								c0.6,0.2,1.3,0.3,2,0.3c0.7,0,1.4-0.1,2-0.3h22.9c1-0.5,2-1,3-1.5c6.4-3.6,11.8-8.4,16-14c0,0,0,0,0,0
								c3.4-4.6,5.9-9.8,7.4-15.3c0.9-3.5,1.4-7.1,1.4-10.9C342.3,131.8,342.1,129.5,341.8,127.2z M319.6,134.1c0,1-0.1,2-0.2,2.9
								c-0.3,2.8-1.1,5.5-2.4,7.9c0,0.1-0.1,0.2-0.1,0.3c-3.2,6.3-9,11.3-16.1,13.9h0c-3.4,1.3-7.2,1.9-11.1,1.9
								c-3.9,0-7.7-0.7-11.1-1.9h0c0,0,0,0,0,0c-1.6-0.6-3.1-1.3-4.6-2.1c-5-2.8-9-6.9-11.5-11.7c0-0.1-0.1-0.2-0.1-0.3
								c-1.4-2.9-2.3-6-2.5-9.4c0-0.5,0-1,0-1.5c0-3.2,0.6-6.3,1.8-9.2c0.1-0.3,0.2-0.6,0.4-0.8c2.9-6.5,8.4-11.7,15.4-14.6
								c0.4-0.2,0.9-0.3,1.3-0.5c3.5-1.3,7.2-1.9,11.2-1.9s7.7,0.7,11.1,1.9c0.5,0.2,0.9,0.3,1.3,0.5c2.7,1.1,5.1,2.5,7.3,4.2
								c3.5,2.8,6.3,6.3,8.1,10.3v0c0.1,0.3,0.2,0.6,0.4,0.8C319,127.8,319.6,130.9,319.6,134.1z"/>
							<path class="st1" d="M317.8,124.9c-0.1-0.3-0.2-0.6-0.4-0.8v0c-1.8-4-4.6-7.5-8.1-10.3c-2.2-1.7-4.6-3.2-7.3-4.2
								c-0.4-0.2-0.9-0.3-1.3-0.5c-3.4-1.3-7.2-1.9-11.1-1.9s-7.7,0.7-11.2,1.9c-0.4,0.2-0.9,0.3-1.3,0.5c-7,2.9-12.5,8.1-15.4,14.6
								c-0.1,0.3-0.2,0.6-0.4,0.8c-1.2,2.9-1.8,6-1.8,9.2c0,0.5,0,1,0,1.5c0.2,3.3,1.1,6.5,2.5,9.4c0.1,0.1,0.1,0.2,0.1,0.3
								c2.5,4.9,6.5,8.9,11.5,11.7c1.5,0.8,3,1.5,4.6,2.1c0,0,0,0,0,0h0c3.4,1.3,7.2,1.9,11.1,1.9c3.9,0,7.7-0.7,11.1-1.9h0
								c7.2-2.6,13-7.6,16.1-13.9c0.1-0.1,0.1-0.2,0.1-0.3c1.2-2.5,2-5.1,2.4-7.9c0.1-1,0.2-2,0.2-2.9
								C319.6,130.9,319,127.8,317.8,124.9z M300.8,155.5c-1,0.4-1.9,0.8-3,1.1c-2.6,0.8-5.3,1.2-8.2,1.2c-2.9,0-5.6-0.4-8.2-1.2
								c-1-0.3-2-0.7-3-1.1c-0.1-0.1-0.3-0.1-0.5-0.2c-5-2.2-9-5.8-11.6-10.3c-0.4-0.7-0.8-1.5-1.1-2.2c-1.2-2.7-1.8-5.6-1.8-8.6
								V134c0-2.5,0.5-5,1.3-7.3c0.2-0.6,0.5-1.2,0.7-1.8c2.5-5.3,7.2-9.7,13-12.2c0.5-0.2,1-0.4,1.6-0.6c3-1.1,6.2-1.6,9.6-1.6
								c3.4,0,6.6,0.6,9.6,1.6c0.5,0.2,1,0.4,1.5,0.6c1.7,0.7,3.4,1.6,4.9,2.7c3.5,2.5,6.4,5.8,8.1,9.5c0.3,0.6,0.5,1.2,0.8,1.8
								c0.9,2.3,1.3,4.8,1.3,7.4c0,1.6-0.2,3.2-0.5,4.7c-0.3,1.4-0.7,2.7-1.3,3.9c-0.3,0.8-0.7,1.5-1.1,2.2
								C310.3,149.6,306,153.3,300.8,155.5z"/>
						</g>
						<path class="st1" d="M459.6,124.9c-2.3-34.9-17.5-66.7-41.5-91.5c-4.9-5-10.1-9.8-15.7-14.2h0C375-2.7,339.7-16.7,300.8-19
							c-3.7-0.2-7.4-0.3-11.1-0.3c-3.7,0-7.5,0.1-11.2,0.3c-38.9,2.3-74.2,16.3-101.6,38.1c-5.6,4.4-10.8,9.2-15.7,14.2
							c-23.9,24.8-39.2,56.6-41.5,91.5c-0.2,3-0.3,6.1-0.3,9.2c0,3.7,0.2,7.3,0.4,10.9c0.8,10.6,2.8,21,5.9,30.9h27.8
							c-3.7-9.8-6.1-20.1-7.1-30.9c-0.3-3.6-0.5-7.2-0.5-10.9c0-3.1,0.1-6.2,0.4-9.2c2.2-28.3,14.5-54.2,33.7-74.6
							c4.8-5.1,10.1-9.9,15.7-14.3C218.2,18.5,246.9,7.2,278.5,5c3.7-0.3,7.4-0.4,11.2-0.4c3.7,0,7.5,0.1,11.1,0.4
							c31.6,2.2,60.3,13.5,82.9,31.1c5.6,4.4,10.9,9.2,15.7,14.3c19.2,20.4,31.5,46.2,33.8,74.6c0.2,3,0.4,6.1,0.4,9.2
							c0,3.7-0.2,7.3-0.5,10.9c-1,10.7-3.4,21.1-7.1,30.9h27.8c3.1-9.9,5.1-20.2,5.9-30.9c0.3-3.6,0.4-7.2,0.4-10.9
							C460,131,459.9,128,459.6,124.9z"/>
						<path class="st1" d="M439.1,124.9c-2.2-29.8-15.2-57-35.5-78.4c-4.8-5.1-10.1-9.9-15.7-14.3c-23.7-18.6-53.9-30.5-87.1-32.7
							c-3.7-0.2-7.4-0.4-11.1-0.4c-3.8,0-7.5,0.1-11.2,0.4c-33.2,2.2-63.4,14.2-87.1,32.7c-5.6,4.4-10.9,9.2-15.7,14.3
							c-20.3,21.4-33.3,48.6-35.5,78.4c-0.2,3-0.3,6.1-0.3,9.2c0,3.7,0.1,7.3,0.5,10.9c0.9,10.7,3.3,21,6.8,30.9h6.4
							c-3.7-9.8-6.1-20.1-7.1-30.9c-0.3-3.6-0.5-7.2-0.5-10.9c0-3.1,0.1-6.2,0.4-9.2c2.2-28.3,14.5-54.2,33.7-74.6
							c4.8-5.1,10.1-9.9,15.7-14.3C218.2,18.5,246.9,7.2,278.5,5c3.7-0.3,7.4-0.4,11.2-0.4c3.7,0,7.5,0.1,11.1,0.4
							c31.6,2.2,60.3,13.5,82.9,31.1c5.6,4.4,10.9,9.2,15.7,14.3c19.2,20.4,31.5,46.2,33.8,74.6c0.2,3,0.4,6.1,0.4,9.2
							c0,3.7-0.2,7.3-0.5,10.9c-1,10.7-3.4,21.1-7.1,30.9h6.4c3.6-9.8,5.9-20.2,6.8-30.9c0.3-3.6,0.5-7.2,0.5-10.9
							C439.5,131,439.4,128,439.1,124.9z"/>
					</g>
				</g>
				<g>
					<ellipse class="st1" cx="289.6" cy="134.1" rx="10.2" ry="9.2"/>
					<ellipse class="st1" cx="260.6" cy="106.3" rx="5.7" ry="5.2"/>
					<ellipse class="st1" cx="289.6" cy="97.2" rx="5.7" ry="5.2"/>
					<ellipse class="st1" cx="322.5" cy="106.3" rx="5.7" ry="5.2"/>
					<ellipse class="st1" cx="330.5" cy="134.1" rx="5.7" ry="5.2"/>
					<path class="st1" d="M295.4,171c0,2.2-1.5,4.1-3.7,4.8c-0.6,0.2-1.3,0.3-2,0.3c-0.7,0-1.4-0.1-2-0.3c-2.2-0.8-3.7-2.6-3.7-4.8
						c0-2.8,2.6-5.1,5.8-5.1S295.4,168.2,295.4,171z"/>
					<ellipse class="st1" cx="259.7" cy="161.1" rx="5.7" ry="5.2"/>
					<ellipse class="st1" cx="248.2" cy="135" rx="5.7" ry="5.2"/>
					<ellipse class="st1" cx="317.8" cy="161.1" rx="5.7" ry="5.2"/>
				</g>
			</g>
		</g>
	</g>
	<path class="st1" d="M425.8,175.9c-6,15.9-15.4,30.5-27.4,42.9l-47.6-42.9H425.8z"/>
	<path class="st1" d="M278.5,196.9v66.4c-31.1-2.2-59.4-13.2-81.8-30.3l52.1-46.9c0.8,0.5,1.6,1,2.4,1.5c7.3,4.3,15.6,7.4,24.5,9
		C276.6,196.6,277.6,196.8,278.5,196.9z"/>
	<path class="st1" d="M287.6,175.9h4c-0.6,0.2-1.3,0.3-2,0.3C289,176.2,288.3,176.1,287.6,175.9z"/>
	<path class="st1" d="M382.6,232.9c-22.4,17.1-50.7,28.2-81.8,30.3v-66.4c0.9-0.1,1.9-0.2,2.8-0.4c8.9-1.6,17.1-4.7,24.5-9
		c0.8-0.5,1.6-1,2.4-1.5L382.6,232.9z"/>
	<path class="st1" d="M228.5,175.9l-47.7,42.9c-12-12.4-21.3-27-27.3-42.9H228.5z"/>
	<path class="st1" d="M578.6,175.9c-0.5,143.4-129.7,259.5-289,259.5c-159.3,0-288.5-116.1-289-259.5h125
		c7,22.5,19.6,42.9,36.3,59.9l-17.3,15.6c-7.4-4.3-17.3-3.6-23.8,2.2l-40.9,36.9c-7.4,6.6-7.4,17.4,0,24.1l10.4,9.3
		c7.4,6.6,19.3,6.6,26.7,0l40.9-36.8c6.4-5.8,7.3-14.8,2.4-21.4l17.4-15.6c27.3,21.4,62.2,35.1,100.6,37.3v22.1
		c-8.5,1-15.1,8.2-15.1,16.9v52.1c0,9.4,7.6,17,17,17h18.4c9.4,0,17-7.6,17-17v-52.1c0-8.7-6.6-15.9-15.1-16.9v-22.1
		c38.4-2.2,73.3-15.9,100.6-37.3l17.4,15.6c-4.8,6.6-4,15.6,2.4,21.4l40.9,36.8c7.4,6.6,19.4,6.6,26.7,0l10.4-9.3
		c7.4-6.6,7.4-17.4,0-24.1l-40.9-36.9c-6.5-5.8-16.4-6.5-23.8-2.2l-17.3-15.6c16.7-17,29.3-37.4,36.3-59.9L578.6,175.9L578.6,175.9z
		"/>
</g>
<path class="st2" d="M578.6,118.5v33c0,3.9-3.2,7.1-7.1,7.1h-4.9v-47.2h4.9C575.5,111.3,578.6,114.5,578.6,118.5z"/>
<path class="st1" d="M995,86.7v148.8H566.6v-76.9h4.9c3.9,0,7.1-3.2,7.1-7.1v-33c0-3.9-3.2-7.1-7.1-7.1h-4.9V86.7H995z"/>
</svg>
