<?xml version="1.0" encoding="utf-8"?>
<!-- Generator: Adobe Illustrator 27.1.1, SVG Export Plug-In . SVG Version: 6.00 Build 0)  -->
<svg version="1.1" id="Layer_1" xmlns="http://www.w3.org/2000/svg" xmlns:xlink="http://www.w3.org/1999/xlink" x="0px" y="0px"
	 viewBox="0 0 4346.5 1625.9" style="enable-background:new 0 0 4346.5 1625.9;" xml:space="preserve">
<style type="text/css">
	.st0{fill:#2733A0;}
	.st1{fill:#F1F1F1;}
</style>
<path class="st0" d="M168.1,0h4010.3c92.8,0,168.1,75.3,168.1,168.1v1289.7c0,92.8-75.3,168.1-168.1,168.1H168.1
	C75.3,1625.9,0,1550.6,0,1457.8V168.1C0,75.3,75.3,0,168.1,0z"/>
<rect x="1457.3" y="762.1" class="st1" width="2627.1" height="144.8"/>
<g>
	<g>
		<g>
			<ellipse class="st1" cx="1093.9" cy="673.4" rx="74.3" ry="66.9"/>
			<g>
				<g>
					<g>
						<path class="st1" d="M1117.4,719v43.1h-19.3c-1.3,0.5-2.8,0.7-4.3,0.7c-1.5,0-2.9-0.2-4.3-0.7h-19.3V719
							c2,0.8,4.1,1.6,6.3,2.2c5.4,1.6,11.3,2.5,17.3,2.5s11.9-0.9,17.3-2.5C1113.3,720.6,1115.4,719.9,1117.4,719z"/>
						<path class="st1" d="M1117.4,252.3v376.4c-1.1-0.5-2.2-0.9-3.3-1.3c-6.3-2.2-13.1-3.4-20.3-3.4s-14,1.2-20.2,3.4
							c-1.1,0.4-2.2,0.8-3.3,1.3V252.3H1117.4z"/>
						<path class="st1" d="M1113.3,307.4h-38.9c-19.9,0-36-16.1-36-36V161.2c0-19.9,16.1-36,36-36h38.9c19.9,0,36,16.1,36,36v110.1
							C1149.3,291.3,1133.2,307.4,1113.3,307.4z"/>
					</g>
					<g>
						<path class="st1" d="M1042.2,692.1c0.7,1.6,1.5,3.2,2.4,4.7H623.8v-42.5h418.9c-0.6,1.3-1.1,2.5-1.6,3.8
							c-1.8,4.8-2.7,10-2.8,15.4v0.2C1038.4,680.3,1039.8,686.5,1042.2,692.1z"/>
						<path class="st1" d="M1561.8,654.4v42.5h-418.8c0.9-1.5,1.7-3.1,2.4-4.7c1.2-2.7,2-5.4,2.7-8.3c0.7-3.2,1.1-6.6,1.1-10
							c0-5.4-1-10.7-2.8-15.6c-0.5-1.3-1-2.6-1.6-3.8L1561.8,654.4L1561.8,654.4z"/>
						<path class="st1" d="M685.1,661.7v27.9c0,19.9-16.1,36-36,36H518.9c-19.9,0-36-16.1-36-36v-27.9c0-19.9,16.1-36,36-36h130.2
							C669,625.7,685.1,641.8,685.1,661.7z"/>
						<path class="st1" d="M1704.8,661.7v27.9c0,19.9-16.1,36-36,36h-130.2c-19.9,0-36-16.1-36-36v-27.9c0-19.9,16.1-36,36-36h130.2
							C1688.7,625.7,1704.8,641.8,1704.8,661.7z"/>
					</g>
					<g>
						<path class="st1" d="M1073.6,627.3c-1.1,0.4-2.2,0.8-3.3,1.3c-12.3,5.2-22.2,14.4-27.5,25.8c-0.6,1.3-1.1,2.5-1.6,3.8
							l-3.3-2.9l-1-0.9l-2-1.8L744.8,391.2l33.3-30l39.6,35.6l68.3,61.5l9.1,8.2L1073.6,627.3z"/>
						<path class="st1" d="M1223.2,762.1h-66.7l-3.6-3.3l-27.2-24.5l-0.3-0.3l-7.9-7.1l0-0.1l-2.9-2.6l-3.3-2.9
							c2.1-0.7,4.2-1.4,6.2-2.2c11-4.7,20.1-12.5,25.6-22.2c0.9-1.5,1.7-3.1,2.4-4.7l3.2,2.8l2.1,1.9l0.7,0.7l8,7.2l0.2,0.2l27,24.3
							l27.2,24.5L1223.2,762.1z"/>
						<path class="st1" d="M815.7,405.4l-21.9,19.7c-15.6,14.1-40.9,14.1-56.5,0l-86.4-77.9c-15.6-14.1-15.6-36.8,0-50.9l21.9-19.7
							c15.6-14.1,40.9-14.1,56.5,0l86.4,77.9C831.3,368.5,831.3,391.3,815.7,405.4z"/>
					</g>
					<g>
						<path class="st1" d="M1076.5,721.3l-6.1,5.5h0l-0.1,0.1l-7.9,7.1l-0.3,0.3l-27.2,24.5h0l-3.6,3.3h-66.7l9.3-8.4l27.2-24.5
							l27-24.3l0.2-0.1l8-7.2l0.8-0.7l5.3-4.7c0.7,1.6,1.5,3.3,2.4,4.7c5.4,9.4,14,17,24.5,21.7c0.4,0.2,0.7,0.3,1.1,0.5
							C1072.3,719.9,1074.4,720.6,1076.5,721.3z"/>
						<path class="st1" d="M1441.4,392.6l-38.1,34.3l-37.8,34.1l-30.7,27.6l-9.1,8.2l-179.2,161.4c-0.5-1.3-1-2.6-1.6-3.8
							c-3.7-8-9.7-14.8-17.2-20.1c-3.2-2.2-6.7-4.1-10.3-5.7c-1.1-0.5-2.2-0.9-3.3-1.3l3.2-2.9l0.1-0.1l2.7-2.5l35.1-31.7
							l214.6-193.4l38.1-34.4L1441.4,392.6z"/>
						<path class="st1" d="M1514.9,276.6l21.9,19.7c15.6,14.1,15.6,36.8,0,50.9l-86.4,77.9c-15.6,14.1-40.9,14.1-56.5,0l-21.9-19.7
							c-15.6-14.1-15.6-36.8,0-50.9l86.4-77.9C1474,262.5,1499.3,262.5,1514.9,276.6z"/>
					</g>
					<g>
						<g>
							<path class="st1" d="M1241.5,654.4c-0.1-1-0.3-2-0.5-3c-0.1-0.6-0.2-1.2-0.4-1.8c-3.5-17.7-11-34.3-21.6-48.9
								c-1.1-1.6-2.3-3.2-3.5-4.7c-1.3-1.6-2.6-3.1-3.9-4.7c-8.3-9.7-18.2-18.3-29.1-25.6c-1.5-1-3-2-4.6-2.9
								c-16.2-10-34.8-17.2-54.8-20.8c-1.9-0.4-3.9-0.7-5.8-0.9c-7.7-1.2-15.5-1.7-23.6-1.7s-15.9,0.6-23.6,1.7
								c-2,0.2-3.9,0.6-5.8,0.9c-20,3.6-38.5,10.8-54.7,20.8c-1.5,0.9-3,1.9-4.5,2.9c-12.7,8.4-23.9,18.6-33.1,30.3
								c-1.2,1.5-2.4,3.1-3.5,4.7c-10.5,14.6-18,31.1-21.6,48.9c-0.3,1.6-0.6,3.2-0.8,4.8c-1.1,6.3-1.6,12.8-1.6,19.5
								c0,7.9,0.7,15.5,2.2,23c0.3,2,0.7,3.8,1.2,5.7c0.4,1.4,0.7,2.8,1.2,4.2c4.3,15.5,11.7,30,21.5,42.8c1.1,1.4,2.1,2.7,3.2,4.1
								c2.4,2.9,4.9,5.7,7.5,8.4h108.2c1.3,0.5,2.8,0.7,4.3,0.7s2.9-0.2,4.3-0.7h108.2c2.6-2.7,5.1-5.5,7.5-8.4
								c1.1-1.3,2.1-2.7,3.2-4c10.7-14.1,18.4-30,22.6-47.1c0.5-1.9,0.9-3.8,1.2-5.7c1.5-7.4,2.2-15.1,2.2-23
								C1243.1,667.2,1242.5,660.7,1241.5,654.4z M1123.2,735.3c-1.2,0.5-2.4,0.9-3.7,1.3c-0.7,0.2-1.4,0.5-2.1,0.7
								c-7.4,2.2-15.3,3.5-23.6,3.5s-16.2-1.3-23.6-3.5c-0.7-0.2-1.4-0.4-2.1-0.7c-1.3-0.4-2.5-0.8-3.7-1.3c-0.8-0.3-1.6-0.7-2.4-1
								c-1.6-0.7-3.2-1.4-4.7-2.2c-12.4-6.3-22.7-15.8-29.3-27.2c-0.4-0.8-0.8-1.5-1.3-2.3s-0.8-1.6-1.2-2.4c-0.5-1.1-1-2.2-1.4-3.4
								c-2.1-5.3-3.6-10.8-4.1-16.6c-0.1-0.9-0.2-1.8-0.2-2.7v-0.2c0-0.5-0.1-0.9-0.1-1.4c0-0.7,0-1.3,0-2c0-1,0-2,0.1-3
								c0-1,0.1-2,0.2-3c0.5-4.6,1.4-9.1,2.9-13.4c0.4-1.3,0.8-2.5,1.3-3.7c0.1-0.4,0.3-0.7,0.5-1.1c0.7-1.5,1.3-3,2.1-4.4
								c6.8-13.1,18.3-23.9,32.6-30.6c1.7-0.8,3.4-1.5,5.1-2.2c0,0,0.1-0.1,0.1-0.1c1.9-0.7,3.8-1.4,5.7-2
								c7.4-2.2,15.4-3.4,23.6-3.4s16.2,1.2,23.6,3.4c2,0.6,3.9,1.2,5.7,2c0,0,0.1,0,0.1,0c1.8,0.7,3.5,1.4,5.2,2.2
								c4.6,2.2,8.9,4.8,12.9,7.8c8.3,6.2,15,14,19.7,22.8c0.7,1.4,1.5,2.9,2.1,4.5c0.1,0.4,0.3,0.7,0.4,1.1c0.5,1.2,1,2.4,1.3,3.7
								c1.5,4.3,2.5,8.8,2.9,13.4c0,0.5,0.1,1.1,0.1,1.6c0,0.5,0,0.9,0,1.3c0,0.9,0.1,1.7,0.1,2.6v0.5c0,1,0,2-0.1,3
								c-0.1,2.3-0.4,4.5-0.7,6.7v0.2c-0.7,4.5-2,8.9-3.7,13.1c-0.4,1.1-0.9,2.2-1.4,3.4c-0.3,0.8-0.7,1.6-1.2,2.4
								c-0.4,0.8-0.8,1.6-1.3,2.3c-7.5,12.8-19.5,23.2-34,29.5C1124.9,734.7,1124.1,735,1123.2,735.3z"/>
							<path class="st1" d="M1204,659.3c-0.2-1.6-0.6-3.3-0.9-4.9c-2.7-12.2-7.7-23.6-14.8-33.7c-2.3-3.3-4.8-6.5-7.5-9.5
								c-7.2-8.1-15.7-15.1-25.3-20.9c-11.4-6.8-24.2-11.8-37.9-14.4c-7.6-1.5-15.5-2.3-23.6-2.3c-8.1,0-16,0.8-23.6,2.3
								c-13.7,2.7-26.5,7.6-37.9,14.4c-13.2,7.9-24.4,18.2-32.9,30.4c-7,10.1-12.1,21.6-14.8,33.7c-1.3,6.3-2,12.8-2,19.5
								c0,7.9,1,15.6,2.9,23c0,0,0,0,0,0c3.1,11.7,8.4,22.6,15.5,32.4c3.7,4.9,7.8,9.6,12.3,13.9c6.4,6,13.6,11.3,21.4,15.7h0
								c2,1.2,4.1,2.2,6.2,3.3h48.5c1.3,0.5,2.8,0.7,4.3,0.7c1.5,0,2.9-0.2,4.3-0.7h48.5c2.1-1,4.2-2.1,6.2-3.3
								c13.5-7.6,25-17.7,33.7-29.6c0,0,0,0,0,0c7.1-9.7,12.5-20.6,15.5-32.4c1.9-7.4,2.9-15.1,2.9-23
								C1205.2,668.9,1204.8,664,1204,659.3z M1157.2,673.8c0,2.1-0.1,4.2-0.4,6.2c-0.7,5.9-2.4,11.6-5,16.8
								c-0.1,0.2-0.2,0.5-0.3,0.7c-6.7,13.3-18.9,23.8-34.1,29.3h0c-7.3,2.7-15.2,4.1-23.5,4.1c-8.3,0-16.2-1.4-23.5-4.1h0
								c0,0,0,0-0.1,0c-3.4-1.3-6.7-2.7-9.7-4.5c-10.6-5.9-19.1-14.5-24.3-24.8c-0.1-0.2-0.2-0.5-0.3-0.7c-3-6.1-4.8-12.8-5.3-19.8
								c0-1.1-0.1-2.1-0.1-3.3c0-6.8,1.3-13.3,3.8-19.4c0.2-0.6,0.5-1.2,0.7-1.7c6.1-13.7,17.7-24.7,32.5-30.8
								c0.9-0.4,1.9-0.7,2.7-1.1c7.3-2.7,15.3-4.1,23.6-4.1c8.3,0,16.3,1.4,23.6,4.1c1,0.3,1.9,0.7,2.8,1.1c5.6,2.3,10.8,5.4,15.4,9
								c7.4,5.9,13.4,13.3,17.1,21.7v0c0.3,0.6,0.5,1.2,0.7,1.7C1155.9,660.5,1157.2,667,1157.2,673.8z"/>
							<path class="st1" d="M1153.4,654.4c-0.2-0.6-0.5-1.2-0.7-1.7v0c-3.7-8.4-9.6-15.8-17.1-21.7c-4.6-3.6-9.8-6.7-15.4-9
								c-0.9-0.4-1.8-0.7-2.8-1.1c-7.3-2.7-15.2-4.1-23.6-4.1s-16.3,1.4-23.6,4.1c-0.9,0.3-1.8,0.7-2.7,1.1
								c-14.8,6.1-26.4,17.1-32.5,30.8c-0.3,0.6-0.5,1.2-0.7,1.7c-2.5,6.1-3.8,12.6-3.8,19.4c0,1.1,0,2.2,0.1,3.3
								c0.5,7,2.3,13.7,5.3,19.8c0.1,0.2,0.2,0.5,0.3,0.7c5.3,10.3,13.7,18.9,24.3,24.8c3.1,1.7,6.3,3.2,9.7,4.5c0,0,0,0,0.1,0h0
								c7.3,2.7,15.1,4.1,23.5,4.1c8.3,0,16.2-1.4,23.5-4.1h0c15.1-5.4,27.4-16,34.1-29.3c0.1-0.2,0.2-0.5,0.3-0.7
								c2.6-5.2,4.3-10.9,5-16.8c0.2-2,0.4-4.1,0.4-6.2C1157.2,667,1155.9,660.5,1153.4,654.4z M1117.4,719c-2,0.8-4.1,1.6-6.2,2.2
								c-5.4,1.6-11.3,2.5-17.3,2.5c-6.1,0-11.9-0.9-17.3-2.5c-2.2-0.7-4.2-1.4-6.3-2.2c-0.3-0.2-0.7-0.3-1.1-0.5
								c-10.5-4.7-19.1-12.3-24.5-21.7c-0.9-1.5-1.7-3.1-2.4-4.7c-2.5-5.6-3.8-11.8-3.8-18.2v-0.2c0-5.4,1-10.6,2.8-15.4
								c0.4-1.3,1-2.6,1.5-3.8c5.4-11.3,15.2-20.5,27.5-25.8c1.1-0.4,2.2-0.9,3.3-1.3c6.3-2.2,13.1-3.4,20.3-3.4
								c7.1,0,14,1.2,20.3,3.4c1.1,0.4,2.2,0.8,3.3,1.3c3.7,1.5,7.2,3.4,10.3,5.7c7.5,5.2,13.5,12.1,17.2,20.1
								c0.6,1.3,1.1,2.5,1.6,3.8c1.8,4.9,2.8,10.2,2.8,15.6c0,3.4-0.4,6.7-1.1,10c-0.7,2.9-1.5,5.6-2.7,8.3
								c-0.7,1.6-1.5,3.2-2.4,4.7C1137.5,706.6,1128.4,714.4,1117.4,719z"/>
						</g>
						<path class="st1" d="M1453.2,654.4c-4.8-73.8-37.1-141-87.7-193.5c-10.3-10.7-21.4-20.7-33.1-30.1h0
							c-58-46.2-132.7-75.8-214.9-80.6c-7.8-0.5-15.6-0.7-23.6-0.7s-15.8,0.2-23.6,0.7c-82.2,4.8-156.8,34.4-214.8,80.6
							c-11.8,9.4-22.9,19.5-33.2,30.1c-50.6,52.4-82.9,119.6-87.7,193.5c-0.4,6.4-0.7,12.9-0.7,19.5c0,7.7,0.3,15.4,0.9,23
							c1.7,22.5,6,44.3,12.6,65.3H806c-7.8-20.8-13-42.6-15.1-65.3c-0.7-7.6-1.1-15.3-1.1-23c0-6.6,0.3-13,0.7-19.5
							c4.7-59.9,30.7-114.5,71.3-157.6c10.2-10.8,21.3-20.9,33.2-30.2c47.7-37.1,108.4-61.2,175.1-65.8c7.8-0.6,15.6-0.8,23.6-0.8
							c7.9,0,15.8,0.3,23.6,0.8c66.8,4.6,127.5,28.6,175.2,65.8c11.9,9.3,22.9,19.4,33.1,30.2c40.6,43.1,66.7,97.7,71.4,157.6
							c0.5,6.4,0.7,12.9,0.7,19.5c0,7.7-0.4,15.4-1.1,23c-2.1,22.7-7.3,44.5-15.1,65.3h58.7c6.6-20.9,10.8-42.8,12.6-65.3
							c0.6-7.6,0.9-15.3,0.9-23C1453.9,667.3,1453.7,660.8,1453.2,654.4z"/>
						<path class="st1" d="M1409.9,654.4c-4.7-63.1-32.2-120.6-75-165.8c-10.2-10.8-21.3-20.9-33.2-30.2
							c-50.1-39.2-114-64.5-184.2-69.2c-7.8-0.5-15.6-0.8-23.6-0.8c-8,0-15.8,0.3-23.6,0.8c-70.2,4.7-134.1,29.9-184.2,69.2
							c-11.9,9.3-22.9,19.4-33.2,30.2c-42.9,45.2-70.4,102.7-75.1,165.8c-0.5,6.4-0.7,12.9-0.7,19.5c0,7.7,0.3,15.4,1,23
							c2,22.6,6.9,44.5,14.4,65.3H806c-7.8-20.8-13-42.6-15.1-65.3c-0.7-7.6-1.1-15.3-1.1-23c0-6.6,0.3-13,0.7-19.5
							c4.7-59.9,30.7-114.5,71.3-157.6c10.2-10.8,21.3-20.9,33.2-30.2c47.7-37.1,108.4-61.2,175.1-65.8c7.8-0.6,15.6-0.8,23.6-0.8
							c7.9,0,15.8,0.3,23.6,0.8c66.8,4.6,127.5,28.6,175.2,65.8c11.9,9.3,22.9,19.4,33.1,30.2c40.6,43.1,66.7,97.7,71.4,157.6
							c0.5,6.4,0.7,12.9,0.7,19.5c0,7.7-0.4,15.4-1.1,23c-2.1,22.7-7.3,44.5-15.1,65.3h13.5c7.5-20.8,12.4-42.6,14.4-65.3
							c0.7-7.6,1-15.3,1-23C1410.6,667.3,1410.4,660.8,1409.9,654.4z"/>
					</g>
				</g>
				<g>
					<ellipse class="st1" cx="1093.9" cy="673.8" rx="21.6" ry="19.4"/>
					<ellipse class="st1" cx="1032.5" cy="615" rx="12.1" ry="10.9"/>
					<ellipse class="st1" cx="1093.9" cy="595.7" rx="12.1" ry="10.9"/>
					<ellipse class="st1" cx="1163.3" cy="615" rx="12.1" ry="10.9"/>
					<ellipse class="st1" cx="1180.3" cy="673.8" rx="12.1" ry="10.9"/>
					<path class="st1" d="M1106,751.9c0,4.7-3.3,8.7-7.8,10.2c-1.3,0.5-2.8,0.7-4.3,0.7c-1.5,0-2.9-0.2-4.3-0.7
						c-4.6-1.6-7.9-5.5-7.9-10.2c0-6,5.4-10.9,12.1-10.9S1106,745.9,1106,751.9z"/>
					<ellipse class="st1" cx="1030.5" cy="730.9" rx="12.1" ry="10.9"/>
					<ellipse class="st1" cx="1006.2" cy="675.6" rx="12.1" ry="10.9"/>
					<ellipse class="st1" cx="1153.4" cy="730.9" rx="12.1" ry="10.9"/>
				</g>
			</g>
		</g>
	</g>
	<path class="st1" d="M1381.7,762.1c-12.7,33.7-32.5,64.4-57.8,90.7l-100.7-90.7H1381.7z"/>
	<path class="st1" d="M1070.3,806.5v140.3c-65.7-4.6-125.6-27.9-173-64.1l110.2-99.2c1.7,1.1,3.4,2.1,5.2,3.2
		c15.5,9.1,33,15.6,51.8,19C1066.3,806,1068.3,806.3,1070.3,806.5z"/>
	<path class="st1" d="M1089.6,762.1h8.6c-1.3,0.5-2.8,0.7-4.3,0.7S1090.9,762.6,1089.6,762.1z"/>
	<path class="st1" d="M1290.4,882.7c-47.4,36.2-107.2,59.6-173,64.1V806.5c2-0.2,3.9-0.5,5.8-0.9c18.8-3.4,36.3-9.9,51.8-19
		c1.8-1,3.5-2,5.2-3.2L1290.4,882.7z"/>
	<path class="st1" d="M964.5,762.1l-100.7,90.7c-25.3-26.3-45.1-57.1-57.8-90.7H964.5z"/>
	<path class="st1" d="M1704.8,762.1c-1,303.1-274.2,548.5-610.9,548.5c-336.8,0-609.8-245.4-610.9-548.5h264.4
		c14.9,47.5,41.5,90.6,76.8,126.5l-36.5,32.9c-15.5-9.2-36.6-7.6-50.2,4.6l-86.4,77.9c-15.6,14-15.6,36.8,0,50.9l21.9,19.7
		c15.6,14.1,40.9,14.1,56.5,0l86.4-77.9c13.6-12.3,15.4-31.3,5.1-45.2l36.7-33.1c57.7,45.2,131.5,74.2,212.7,78.9v46.7
		c-17.9,2-31.8,17.3-31.8,35.7V1190c0,19.9,16.1,36,36,36h38.9c19.9,0,36-16.1,36-36v-110.1c0-18.5-13.9-33.7-31.9-35.7v-46.7
		c81.2-4.7,155-33.7,212.7-78.9l36.7,33.1c-10.2,14-8.5,33,5.1,45.2l86.4,77.9c15.6,14.1,40.9,14.1,56.5,0l21.9-19.7
		c15.6-14.1,15.6-36.9,0-50.9l-86.4-77.9c-13.6-12.2-34.7-13.8-50.3-4.6l-36.5-32.9c35.3-35.9,61.9-79,76.8-126.5H1704.8z"/>
</g>
<g>
	<path class="st1" d="M1874.5,671.2c-31.4-21.9-47.1-53.4-47.1-94.4v-28.9h119.6v34.7c0,32.8,21.8,49.2,65.5,49.2
		c21.5,0,37.8-4,48.9-11.9c11.1-8,16.7-20.9,16.7-38.7c0-21.2-7.7-39.9-23-56c-15.3-16.2-43.7-35.5-85.1-58.2
		c-52.1-28.9-88.6-55.1-109.3-78.5s-31-49.8-31-79.2c0-40,16.1-71,48.3-92.9s79-32.9,140.3-32.9c60.6,0,106.4,11,137.4,32.9
		c31,21.9,46.6,53.4,46.6,94.3v21h-119.6v-26c0-17.3-5.4-30-16.1-38c-10.7-8-26.5-11.9-47.2-11.9c-42.2,0-63.2,16.2-63.2,48.4
		c0,18.3,7.9,35.4,23.6,51.3s44.3,35.2,85.7,57.8c52.9,28.9,89.3,55.2,109.2,78.8c19.9,23.6,29.9,51.3,29.9,83.1
		c0,41.5-16.3,73.3-48.9,95.5c-32.6,22.2-79.9,33.2-142,33.2C1952.3,704.1,1905.9,693.1,1874.5,671.2z"/>
	<path class="st1" d="M2276.9,190.8h186.3c62.9,0,110,10.6,141.4,31.8c31.4,21.2,47.2,52.3,47.2,93.3v49.9c0,41-15.7,72.1-47.2,93.3
		s-78.6,31.8-141.4,31.8h-59.8v206.1h-126.5V190.8z M2463.2,418.5c20.7,0,36.2-3.6,46.6-10.8c10.3-7.2,15.5-19.5,15.5-36.9v-60
		c0-17.3-5.2-29.6-15.5-36.9c-10.3-7.2-25.9-10.8-46.6-10.8h-59.8v155.4H2463.2z"/>
	<path class="st1" d="M2761,670.8c-33-22.2-49.4-53.5-49.4-94V310.8c0-40.5,16.5-71.8,49.4-94s80.5-33.3,142.6-33.3
		c62.1,0,109.6,11.1,142.6,33.3s49.5,53.5,49.5,94v266.1c0,40.5-16.5,71.8-49.5,94s-80.5,33.2-142.6,33.2
		C2841.5,704.1,2794,693,2761,670.8z M2969.1,581.9V305.7c0-33.2-21.9-49.9-65.5-49.9c-43.7,0-65.5,16.6-65.5,49.9v276.2
		c0,33.3,21.8,49.9,65.5,49.9C2947.3,631.8,2969.1,615.2,2969.1,581.9z"/>
	<path class="st1" d="M3220.9,670.8c-33-22.2-49.4-53.5-49.4-94V310.8c0-40.5,16.5-71.8,49.4-94s80.5-33.3,142.6-33.3
		c62.1,0,109.6,11.1,142.6,33.3s49.5,53.5,49.5,94v266.1c0,40.5-16.5,71.8-49.5,94s-80.5,33.2-142.6,33.2
		C3301.4,704.1,3253.9,693,3220.9,670.8z M3429.1,581.9V305.7c0-33.2-21.9-49.9-65.5-49.9c-43.7,0-65.5,16.6-65.5,49.9v276.2
		c0,33.3,21.8,49.9,65.5,49.9C3407.2,631.8,3429.1,615.2,3429.1,581.9z"/>
	<path class="st1" d="M3640.6,190.8h158.7l123.1,302.9h2.3V190.8h112.7v506.1h-130l-151.8-369.5h-2.3v369.5h-112.7V190.8z"/>
</g>
<g>
	<path class="st1" d="M1750.2,1065.9c-5.3,0-10.3-0.4-15-1.1c-4.7-0.8-9.1-1.9-13.2-3.4c-4.1-1.5-7.9-3.4-11.5-5.7l9.6-8.9
		c4.2,2.7,8.8,4.8,13.8,6.2c5,1.4,10.5,2.1,16.4,2.1c7.9,0,14.1-1.1,18.5-3.4c4.4-2.2,6.6-5.4,6.6-9.4v-0.1c0-3.2-1.1-5.6-3.3-7.2
		c-2.2-1.7-5.1-2.9-8.7-3.7c-3.6-0.8-7.5-1.5-11.8-2c-4.1-0.5-8.3-1.2-12.5-1.9c-4.2-0.7-8.1-1.9-11.6-3.4c-3.5-1.5-6.3-3.8-8.5-6.6
		c-2.1-2.9-3.2-6.8-3.2-11.6v-0.1c0-7.7,3.4-13.7,10.2-18c6.8-4.2,16.4-6.4,28.7-6.4c5.9,0,11.6,0.7,17.3,2.1
		c5.6,1.4,11.1,3.6,16.4,6.5l-8.7,9.2c-4.2-2.4-8.3-4.1-12.5-5.3c-4.1-1.1-8.3-1.7-12.5-1.7c-7.5,0-13.3,1.1-17.5,3.4
		s-6.2,5.5-6.2,9.6v0.1c0,3.1,1.2,5.5,3.6,7.1c2.4,1.6,5.6,2.8,9.5,3.6c3.9,0.8,8.1,1.5,12.6,2.2c4,0.6,8,1.3,12.1,2.2
		c4,0.9,7.7,2.1,11,3.7c3.3,1.6,5.9,3.8,7.9,6.6c2,2.8,3,6.5,3,11v0.1c0,7.6-3.5,13.6-10.6,17.8
		C1772.9,1063.8,1763,1065.9,1750.2,1065.9z"/>
	<path class="st1" d="M1810.8,1065v-83h15.4v83H1810.8z M1818.3,993.1v-11.1h63v11.1H1818.3z M1818.3,1029.4v-11.1h54.7v11.1H1818.3
		z M1818.3,1065V1054h63v11.1H1818.3z"/>
	<path class="st1" d="M1892.6,1065l40.4-83h13.1l40.4,83H1970l-30.4-66.9l-30.4,66.9H1892.6z M1911.2,1046.8v-11.1h57.7v11.1H1911.2
		z"/>
	<path class="st1" d="M2003.2,1065v-83h15.4v83H2003.2z M2010.7,993.1v-11.1h61.5v11.1H2010.7z M2010.7,1030.1V1019h53.2v11.1
		H2010.7z"/>
	<path class="st1" d="M2071.4,1065l40.4-83h13.1l40.4,83h-16.6l-30.4-66.9L2088,1065H2071.4z M2090,1046.8v-11.1h57.7v11.1H2090z"/>
	<path class="st1" d="M2182,1065v-83h15.4v83H2182z M2188.7,1029.9v-11.1h37.4c4.5,0,8.1-1.2,10.8-3.5c2.7-2.4,4.1-5.5,4.1-9.4
		c0-3.9-1.4-7-4.1-9.4s-6.3-3.5-10.8-3.5h-37.4V982h36.8c6.4,0,12,1,16.7,3c4.8,2,8.5,4.8,11.1,8.4c2.6,3.6,4,7.8,4,12.6
		c0,4.8-1.3,9-4,12.6c-2.7,3.6-6.4,6.4-11.1,8.4c-4.8,2-10.3,3-16.7,3H2188.7z M2243.7,1065l-25.1-37.7l15.3-2.6l28.1,40.3H2243.7z"
		/>
	<path class="st1" d="M2282.7,1065v-83h15.4v83H2282.7z M2290.1,993.1v-11.1h63v11.1H2290.1z M2290.1,1029.4v-11.1h54.7v11.1H2290.1
		z M2290.1,1065V1054h63v11.1H2290.1z"/>
	<path class="st1" d="M2375,1065v-83h15.4v83H2375z M2381.7,1029.9v-11.1h37.4c4.5,0,8.1-1.2,10.8-3.5c2.7-2.4,4.1-5.5,4.1-9.4
		c0-3.9-1.4-7-4.1-9.4c-2.7-2.4-6.3-3.5-10.8-3.5h-37.4V982h36.8c6.4,0,12,1,16.7,3c4.8,2,8.5,4.8,11.1,8.4c2.6,3.6,4,7.8,4,12.6
		c0,4.8-1.3,9-4,12.6s-6.4,6.4-11.1,8.4c-4.8,2-10.3,3-16.7,3H2381.7z M2436.7,1065l-25.1-37.7l15.3-2.6l28.1,40.3H2436.7z"/>
	<path class="st1" d="M2467.7,1013.2v-31.2h16.1v18.5L2467.7,1013.2z"/>
	<path class="st1" d="M2531.5,1065.9c-5.3,0-10.3-0.4-15-1.1c-4.7-0.8-9.1-1.9-13.2-3.4c-4.1-1.5-7.9-3.4-11.5-5.7l9.6-8.9
		c4.2,2.7,8.8,4.8,13.8,6.2c5,1.4,10.5,2.1,16.4,2.1c7.9,0,14.1-1.1,18.5-3.4c4.4-2.2,6.6-5.4,6.6-9.4v-0.1c0-3.2-1.1-5.6-3.3-7.2
		c-2.2-1.7-5.1-2.9-8.7-3.7c-3.6-0.8-7.5-1.5-11.8-2c-4.1-0.5-8.3-1.2-12.5-1.9s-8.1-1.9-11.6-3.4c-3.5-1.5-6.3-3.8-8.5-6.6
		c-2.1-2.9-3.2-6.8-3.2-11.6v-0.1c0-7.7,3.4-13.7,10.2-18c6.8-4.2,16.4-6.4,28.7-6.4c5.9,0,11.6,0.7,17.3,2.1
		c5.6,1.4,11.1,3.6,16.4,6.5l-8.7,9.2c-4.2-2.4-8.3-4.1-12.5-5.3c-4.1-1.1-8.3-1.7-12.5-1.7c-7.5,0-13.3,1.1-17.5,3.4
		c-4.1,2.3-6.2,5.5-6.2,9.6v0.1c0,3.1,1.2,5.5,3.6,7.1c2.4,1.6,5.6,2.8,9.5,3.6c3.9,0.8,8.1,1.5,12.6,2.2c4,0.6,8,1.3,12.1,2.2
		c4,0.9,7.7,2.1,11,3.7c3.3,1.6,5.9,3.8,7.9,6.6c2,2.8,3,6.5,3,11v0.1c0,7.6-3.5,13.6-10.6,17.8
		C2554.2,1063.8,2544.3,1065.9,2531.5,1065.9z"/>
	<path class="st1" d="M2635.2,1065v-83h15.4v83H2635.2z M2643.1,1032.9v-11.1h35.1c5,0,9.1-1.3,12.1-3.9c3-2.6,4.6-6.1,4.6-10.3
		c0-4.3-1.5-7.8-4.6-10.4c-3-2.6-7.1-3.9-12.1-3.9h-35.1v-11.1h34.5c6.6,0,12.4,1.1,17.3,3.2c4.9,2.1,8.8,5.1,11.5,8.9
		c2.7,3.8,4.1,8.3,4.1,13.4c0,5.1-1.4,9.6-4.1,13.4c-2.7,3.8-6.6,6.8-11.5,8.8c-4.9,2.1-10.7,3.1-17.3,3.1H2643.1z"/>
	<path class="st1" d="M2729.8,1065v-83h15.4v83H2729.8z M2736.5,1029.9v-11.1h37.4c4.5,0,8.1-1.2,10.8-3.5c2.7-2.4,4.1-5.5,4.1-9.4
		c0-3.9-1.4-7-4.1-9.4c-2.7-2.4-6.3-3.5-10.8-3.5h-37.4V982h36.8c6.4,0,12,1,16.7,3c4.8,2,8.5,4.8,11.1,8.4c2.6,3.6,4,7.8,4,12.6
		c0,4.8-1.3,9-4,12.6s-6.4,6.4-11.1,8.4c-4.8,2-10.3,3-16.7,3H2736.5z M2791.5,1065l-25.1-37.7l15.3-2.6l28.1,40.3H2791.5z"/>
	<path class="st1" d="M2863.8,1065.9c-7.7,0-14.5-1.3-20.3-3.8c-5.8-2.5-10.3-6.1-13.5-10.7c-3.2-4.6-4.8-10-4.8-16.1v-23.5
		c0-6.2,1.6-11.5,4.8-16.1c3.2-4.6,7.7-8.1,13.5-10.7c5.8-2.5,12.5-3.8,20.3-3.8c7.7,0,14.5,1.3,20.3,3.8
		c5.8,2.5,10.3,6.1,13.5,10.7c3.2,4.6,4.8,10,4.8,16.1v23.5c0,6.1-1.6,11.5-4.8,16.1c-3.2,4.6-7.7,8.2-13.5,10.7
		C2878.3,1064.6,2871.5,1065.9,2863.8,1065.9z M2863.8,1054.4c6.9,0,12.4-1.7,16.6-5.1c4.1-3.4,6.2-8,6.2-13.6v-24.3
		c0-5.7-2.1-10.2-6.2-13.6c-4.1-3.4-9.7-5.1-16.6-5.1c-6.8,0-12.3,1.7-16.5,5.1c-4.2,3.4-6.3,7.9-6.3,13.6v24.3
		c0,5.6,2.1,10.2,6.3,13.6C2851.4,1052.7,2856.9,1054.4,2863.8,1054.4z"/>
	<path class="st1" d="M2961.1,1020.4h38v14.5c0,6.2-1.6,11.7-4.8,16.4c-3.2,4.7-7.7,8.3-13.4,10.8c-5.7,2.6-12.5,3.9-20.2,3.9
		c-7.8,0-14.6-1.2-20.4-3.6c-5.8-2.4-10.4-5.8-13.6-10.2c-3.2-4.4-4.8-9.5-4.8-15.4v-24.5c0-6.2,1.6-11.7,4.8-16.3
		c3.2-4.6,7.7-8.2,13.4-10.8c5.7-2.6,12.5-3.9,20.2-3.9c6.4,0,12.2,1,17.5,3.1c5.3,2.1,9.7,4.9,13.2,8.6c3.6,3.7,6,8,7.2,13h-16.7
		c-1.4-4.3-4.1-7.6-8.2-9.9s-8.4-3.4-13-3.4c-6.8,0-12.3,1.8-16.4,5.4c-4.1,3.6-6.2,8.3-6.2,14.2v24.5c0,5.4,2.1,9.7,6.3,13
		c4.2,3.3,9.8,4.9,16.7,4.9c6.8,0,12.3-1.7,16.4-5.1c4.1-3.4,6.2-8.2,6.2-14.3v-3.6h-22.2V1020.4z"/>
	<path class="st1" d="M3022.5,1065v-83h15.4v83H3022.5z M3029.2,1029.9v-11.1h37.4c4.5,0,8.1-1.2,10.8-3.5c2.7-2.4,4.1-5.5,4.1-9.4
		c0-3.9-1.4-7-4.1-9.4c-2.7-2.4-6.3-3.5-10.8-3.5h-37.4V982h36.8c6.4,0,12,1,16.7,3c4.8,2,8.5,4.8,11.1,8.4c2.6,3.6,4,7.8,4,12.6
		c0,4.8-1.3,9-4,12.6s-6.4,6.4-11.1,8.4c-4.8,2-10.3,3-16.7,3H3029.2z M3084.2,1065l-25.1-37.7l15.3-2.6l28.1,40.3H3084.2z"/>
	<path class="st1" d="M3108.9,1065l40.4-83h13.1l40.4,83h-16.6l-30.4-66.9l-30.4,66.9H3108.9z M3127.5,1046.8v-11.1h57.7v11.1
		H3127.5z"/>
	<path class="st1" d="M3266,1036.8l32.2-54.8h14.4v83h-15v-62.2l0.8,3.7l-27,47h-10.7l-27-45.8l0.8-4.8v62.2h-15v-83h14.4
		L3266,1036.8z"/>
	<path class="st1" d="M3417.6,1065.9c-7.7,0-14.5-1.3-20.3-3.8c-5.8-2.5-10.3-6.1-13.5-10.7c-3.2-4.6-4.8-10-4.8-16.1v-23.5
		c0-6.2,1.6-11.5,4.8-16.1c3.2-4.6,7.7-8.1,13.5-10.7c5.8-2.5,12.5-3.8,20.3-3.8c7.7,0,14.5,1.3,20.3,3.8
		c5.8,2.5,10.3,6.1,13.5,10.7c3.2,4.6,4.8,10,4.8,16.1v23.5c0,6.1-1.6,11.5-4.8,16.1c-3.2,4.6-7.7,8.2-13.5,10.7
		C3432.1,1064.6,3425.3,1065.9,3417.6,1065.9z M3417.6,1054.4c6.9,0,12.4-1.7,16.6-5.1c4.1-3.4,6.2-8,6.2-13.6v-24.3
		c0-5.7-2.1-10.2-6.2-13.6c-4.1-3.4-9.7-5.1-16.6-5.1c-6.8,0-12.3,1.7-16.5,5.1c-4.2,3.4-6.3,7.9-6.3,13.6v24.3
		c0,5.6,2.1,10.2,6.3,13.6C3405.2,1052.7,3410.7,1054.4,3417.6,1054.4z"/>
	<path class="st1" d="M3479.5,1065v-82.9h14l53.6,64.2l-1.8,1.5v-65.6h15.2v82.9h-14.1l-53.5-63.2l1.8-1.5v64.7H3479.5z"/>
	<path class="st1" d="M3614.7,1047.1l22.5-65.1h10.6l22.5,65.1l19.4-65.1h16l-26.8,83h-15.7l-20.2-58l-21.1,58h-15.7l-26.8-83h16
		L3614.7,1047.1z"/>
	<path class="st1" d="M3704.1,1065l40.4-83h13.1l40.4,83h-16.6l-30.4-66.9l-30.4,66.9H3704.1z M3722.7,1046.8v-11.1h57.7v11.1
		H3722.7z"/>
	<path class="st1" d="M3814.6,1065v-83h15.4v83H3814.6z M3821.3,1029.9v-11.1h37.4c4.5,0,8.1-1.2,10.8-3.5c2.7-2.4,4.1-5.5,4.1-9.4
		c0-3.9-1.4-7-4.1-9.4c-2.7-2.4-6.3-3.5-10.8-3.5h-37.4V982h36.8c6.4,0,12,1,16.7,3c4.8,2,8.5,4.8,11.1,8.4c2.6,3.6,4,7.8,4,12.6
		c0,4.8-1.3,9-4,12.6s-6.4,6.4-11.1,8.4c-4.8,2-10.3,3-16.7,3H3821.3z M3876.3,1065l-25.1-37.7l15.3-2.6l28.1,40.3H3876.3z"/>
	<path class="st1" d="M3915.3,1065v-83h15.4v83H3915.3z M3925.7,1065V1054h24.8c8.1,0,14.4-1.6,18.8-4.8c4.5-3.2,6.7-7.7,6.7-13.4
		v-24.4c0-5.8-2.2-10.3-6.7-13.4c-4.4-3.2-10.7-4.8-18.8-4.8h-24.8v-11.1h24.4c13.3,0,23.5,2.6,30.8,7.8
		c7.3,5.2,10.9,12.5,10.9,21.9v23.5c0,6.3-1.6,11.6-4.9,16.1c-3.3,4.4-8,7.8-14.3,10.2c-6.2,2.3-13.8,3.5-22.6,3.5H3925.7z"/>
	<path class="st1" d="M4046.6,1065.9c-5.3,0-10.3-0.4-15-1.1c-4.7-0.8-9.1-1.9-13.2-3.4c-4.1-1.5-7.9-3.4-11.5-5.7l9.6-8.9
		c4.2,2.7,8.8,4.8,13.8,6.2c5,1.4,10.5,2.1,16.4,2.1c7.9,0,14.1-1.1,18.5-3.4c4.4-2.2,6.6-5.4,6.6-9.4v-0.1c0-3.2-1.1-5.6-3.3-7.2
		c-2.2-1.7-5.1-2.9-8.7-3.7c-3.6-0.8-7.5-1.5-11.8-2c-4.1-0.5-8.3-1.2-12.5-1.9s-8.1-1.9-11.6-3.4c-3.5-1.5-6.3-3.8-8.5-6.6
		c-2.1-2.9-3.2-6.8-3.2-11.6v-0.1c0-7.7,3.4-13.7,10.2-18c6.8-4.2,16.4-6.4,28.7-6.4c5.9,0,11.6,0.7,17.3,2.1
		c5.6,1.4,11.1,3.6,16.4,6.5l-8.7,9.2c-4.2-2.4-8.3-4.1-12.5-5.3c-4.1-1.1-8.3-1.7-12.5-1.7c-7.5,0-13.3,1.1-17.5,3.4
		c-4.1,2.3-6.2,5.5-6.2,9.6v0.1c0,3.1,1.2,5.5,3.6,7.1c2.4,1.6,5.6,2.8,9.5,3.6c3.9,0.8,8.1,1.5,12.6,2.2c4,0.6,8,1.3,12.1,2.2
		c4,0.9,7.7,2.1,11,3.7c3.3,1.6,5.9,3.8,7.9,6.6c2,2.8,3,6.5,3,11v0.1c0,7.6-3.5,13.6-10.6,17.8
		C4069.3,1063.8,4059.4,1065.9,4046.6,1065.9z"/>
	<path class="st1" d="M1910.8,1133.4v-11.1h77.4v11.1H1910.8z M1941.8,1205.3v-76.2h15.4v76.2H1941.8z"/>
	<path class="st1" d="M2036.5,1206.2c-7.7,0-14.5-1.3-20.3-3.8c-5.8-2.5-10.3-6.1-13.5-10.7c-3.2-4.6-4.8-10-4.8-16.1v-23.5
		c0-6.2,1.6-11.5,4.8-16.1c3.2-4.6,7.7-8.1,13.5-10.7c5.8-2.5,12.5-3.8,20.3-3.8c7.7,0,14.5,1.3,20.3,3.8
		c5.8,2.5,10.3,6.1,13.5,10.7c3.2,4.6,4.8,10,4.8,16.1v23.5c0,6.1-1.6,11.5-4.8,16.1c-3.2,4.6-7.7,8.2-13.5,10.7
		C2051,1204.9,2044.2,1206.2,2036.5,1206.2z M2036.5,1194.7c6.9,0,12.4-1.7,16.6-5.1c4.1-3.4,6.2-8,6.2-13.6v-24.3
		c0-5.7-2.1-10.2-6.2-13.6c-4.1-3.4-9.7-5.1-16.6-5.1c-6.8,0-12.3,1.7-16.5,5.1c-4.2,3.4-6.3,7.9-6.3,13.6v24.3
		c0,5.6,2.1,10.2,6.3,13.6C2024.2,1193,2029.7,1194.7,2036.5,1194.7z"/>
	<path class="st1" d="M2177.7,1206.2c-7.7,0-14.5-1.3-20.3-3.8c-5.8-2.5-10.3-6.1-13.5-10.7c-3.2-4.6-4.8-10-4.8-16.1v-23.5
		c0-6.2,1.6-11.5,4.8-16.1c3.2-4.6,7.7-8.1,13.5-10.7c5.8-2.5,12.5-3.8,20.3-3.8c7.7,0,14.5,1.3,20.3,3.8
		c5.8,2.5,10.3,6.1,13.5,10.7c3.2,4.6,4.8,10,4.8,16.1v23.5c0,6.1-1.6,11.5-4.8,16.1c-3.2,4.6-7.7,8.2-13.5,10.7
		C2192.2,1204.9,2185.4,1206.2,2177.7,1206.2z M2177.7,1194.7c6.9,0,12.4-1.7,16.6-5.1c4.1-3.4,6.2-8,6.2-13.6v-24.3
		c0-5.7-2.1-10.2-6.2-13.6c-4.1-3.4-9.7-5.1-16.6-5.1c-6.8,0-12.3,1.7-16.5,5.1c-4.2,3.4-6.3,7.9-6.3,13.6v24.3
		c0,5.6,2.1,10.2,6.3,13.6C2165.3,1193,2170.8,1194.7,2177.7,1194.7z"/>
	<path class="st1" d="M2275,1206.2c-12.2,0-21.7-2.7-28.4-8.1c-6.7-5.4-10.1-13-10.1-22.8v-53h15.4v53.4c0,6,2,10.7,6,14s9.7,5,17,5
		c7.4,0,13.1-1.7,17.2-5c4-3.3,6.1-8,6.1-14v-53.4h15.4v53c0,9.8-3.4,17.4-10.1,22.8C2296.8,1203.5,2287.3,1206.2,2275,1206.2z"/>
	<path class="st1" d="M2324.2,1133.4v-11.1h77.4v11.1H2324.2z M2355.2,1205.3v-76.2h15.4v76.2H2355.2z"/>
	<path class="st1" d="M2446.6,1206.2c-5.3,0-10.3-0.4-15-1.1c-4.7-0.8-9.1-1.9-13.2-3.4c-4.1-1.5-7.9-3.4-11.5-5.7l9.6-8.9
		c4.2,2.7,8.8,4.8,13.8,6.2c5,1.4,10.5,2.1,16.4,2.1c7.9,0,14.1-1.1,18.5-3.4c4.4-2.2,6.6-5.4,6.6-9.4v-0.1c0-3.2-1.1-5.6-3.3-7.2
		c-2.2-1.7-5.1-2.9-8.7-3.7c-3.6-0.8-7.5-1.5-11.8-2c-4.1-0.5-8.3-1.2-12.5-1.9s-8.1-1.9-11.6-3.4c-3.5-1.5-6.3-3.8-8.5-6.6
		c-2.1-2.9-3.2-6.8-3.2-11.6v-0.1c0-7.7,3.4-13.7,10.2-18c6.8-4.2,16.4-6.4,28.7-6.4c5.9,0,11.6,0.7,17.3,2.1
		c5.6,1.4,11.1,3.6,16.4,6.5l-8.7,9.2c-4.2-2.4-8.3-4.1-12.5-5.3c-4.1-1.1-8.3-1.7-12.5-1.7c-7.5,0-13.3,1.1-17.5,3.4
		c-4.1,2.3-6.2,5.5-6.2,9.6v0.1c0,3.1,1.2,5.5,3.6,7.1c2.4,1.6,5.6,2.8,9.5,3.6c3.9,0.8,8.1,1.5,12.6,2.2c4,0.6,8,1.3,12.1,2.2
		c4,0.9,7.7,2.1,11,3.7c3.3,1.6,5.9,3.8,7.9,6.6c2,2.8,3,6.5,3,11v0.1c0,7.6-3.5,13.6-10.6,17.8
		C2469.3,1204.1,2459.4,1206.2,2446.6,1206.2z"/>
	<path class="st1" d="M2493.7,1133.4v-11.1h77.4v11.1H2493.7z M2524.7,1205.3v-76.2h15.4v76.2H2524.7z"/>
	<path class="st1" d="M2568.8,1205.3l40.4-83h13.1l40.4,83h-16.6l-30.4-66.9l-30.4,66.9H2568.8z M2587.4,1187.1V1176h57.7v11.1
		H2587.4z"/>
	<path class="st1" d="M2679.4,1205.3v-82.9h14l53.6,64.2l-1.8,1.5v-65.6h15.2v82.9h-14.1l-53.5-63.2l1.8-1.5v64.7H2679.4z"/>
	<path class="st1" d="M2787.5,1205.3v-83h15.4v83H2787.5z M2797.9,1205.3v-11.1h24.8c8.1,0,14.4-1.6,18.8-4.8
		c4.5-3.2,6.7-7.7,6.7-13.4v-24.4c0-5.8-2.2-10.3-6.7-13.4c-4.4-3.2-10.7-4.8-18.8-4.8h-24.8v-11.1h24.4c13.3,0,23.5,2.6,30.8,7.8
		c7.3,5.2,10.9,12.5,10.9,21.9v23.5c0,6.3-1.6,11.6-4.9,16.1c-3.3,4.4-8,7.8-14.3,10.2c-6.2,2.3-13.8,3.5-22.6,3.5H2797.9z"/>
	<path class="st1" d="M2902.8,1122.3v83h-15.4v-83H2902.8z"/>
	<path class="st1" d="M2929.9,1205.3v-82.9h14l53.6,64.2l-1.8,1.5v-65.6h15.2v82.9h-14.1l-53.5-63.2l1.8-1.5v64.7H2929.9z"/>
	<path class="st1" d="M3075,1160.6h38v14.5c0,6.2-1.6,11.7-4.8,16.4c-3.2,4.7-7.7,8.3-13.4,10.8c-5.7,2.6-12.5,3.9-20.2,3.9
		c-7.8,0-14.6-1.2-20.4-3.6c-5.8-2.4-10.4-5.8-13.6-10.2c-3.2-4.4-4.8-9.5-4.8-15.4v-24.5c0-6.2,1.6-11.7,4.8-16.3
		c3.2-4.6,7.7-8.2,13.4-10.8c5.7-2.6,12.5-3.9,20.2-3.9c6.4,0,12.2,1,17.5,3.1c5.3,2.1,9.7,4.9,13.2,8.6c3.6,3.7,6,8,7.2,13h-16.7
		c-1.4-4.3-4.1-7.6-8.2-9.9s-8.4-3.4-13-3.4c-6.8,0-12.3,1.8-16.4,5.4c-4.1,3.6-6.2,8.3-6.2,14.2v24.5c0,5.4,2.1,9.7,6.3,13
		c4.2,3.3,9.8,4.9,16.7,4.9c6.8,0,12.3-1.7,16.4-5.1c4.1-3.4,6.2-8.2,6.2-14.3v-3.6H3075V1160.6z"/>
	<path class="st1" d="M3179.4,1205.3v-82.9h14l53.6,64.2l-1.8,1.5v-65.6h15.2v82.9h-14.1l-53.5-63.2l1.8-1.5v64.7H3179.4z"/>
	<path class="st1" d="M3324.5,1206.2c-12.2,0-21.7-2.7-28.4-8.1c-6.7-5.4-10.1-13-10.1-22.8v-53h15.4v53.4c0,6,2,10.7,6,14
		s9.7,5,17,5c7.4,0,13.1-1.7,17.2-5c4-3.3,6.1-8,6.1-14v-53.4h15.4v53c0,9.8-3.4,17.4-10.1,22.8
		C3346.3,1203.5,3336.8,1206.2,3324.5,1206.2z"/>
	<path class="st1" d="M3373.7,1133.4v-11.1h77.4v11.1H3373.7z M3404.7,1205.3v-76.2h15.4v76.2H3404.7z"/>
	<path class="st1" d="M3466.1,1205.3v-83h15.4v83H3466.1z M3472.8,1170.2v-11.1h37.4c4.5,0,8.1-1.2,10.8-3.5
		c2.7-2.4,4.1-5.5,4.1-9.4c0-3.9-1.4-7-4.1-9.4c-2.7-2.4-6.3-3.5-10.8-3.5h-37.4v-11.1h36.8c6.4,0,12,1,16.7,3
		c4.8,2,8.5,4.8,11.1,8.4c2.6,3.6,4,7.8,4,12.6c0,4.8-1.3,9-4,12.6s-6.4,6.4-11.1,8.4c-4.8,2-10.3,3-16.7,3H3472.8z M3527.8,1205.3
		l-25.1-37.7l15.3-2.6l28.1,40.3H3527.8z"/>
	<path class="st1" d="M3582.2,1122.3v83h-15.4v-83H3582.2z"/>
	<path class="st1" d="M3600.3,1133.4v-11.1h77.4v11.1H3600.3z M3631.3,1205.3v-76.2h15.4v76.2H3631.3z"/>
	<path class="st1" d="M3708.1,1122.3v83h-15.4v-83H3708.1z"/>
	<path class="st1" d="M3771.6,1206.2c-7.7,0-14.5-1.3-20.3-3.8c-5.8-2.5-10.3-6.1-13.5-10.7c-3.2-4.6-4.8-10-4.8-16.1v-23.5
		c0-6.2,1.6-11.5,4.8-16.1c3.2-4.6,7.7-8.1,13.5-10.7c5.8-2.5,12.5-3.8,20.3-3.8c7.7,0,14.5,1.3,20.3,3.8
		c5.8,2.5,10.3,6.1,13.5,10.7c3.2,4.6,4.8,10,4.8,16.1v23.5c0,6.1-1.6,11.5-4.8,16.1c-3.2,4.6-7.7,8.2-13.5,10.7
		C3786.1,1204.9,3779.3,1206.2,3771.6,1206.2z M3771.6,1194.7c6.9,0,12.4-1.7,16.6-5.1c4.1-3.4,6.2-8,6.2-13.6v-24.3
		c0-5.7-2.1-10.2-6.2-13.6c-4.1-3.4-9.7-5.1-16.6-5.1c-6.8,0-12.3,1.7-16.5,5.1c-4.2,3.4-6.3,7.9-6.3,13.6v24.3
		c0,5.6,2.1,10.2,6.3,13.6C3759.2,1193,3764.7,1194.7,3771.6,1194.7z"/>
	<path class="st1" d="M3833.5,1205.3v-82.9h14l53.6,64.2l-1.8,1.5v-65.6h15.2v82.9h-14.1l-53.5-63.2l1.8-1.5v64.7H3833.5z"/>
</g>
</svg>
