<?xml version="1.0" encoding="utf-8"?>
<!-- Generator: Adobe Illustrator 27.1.1, SVG Export Plug-In . SVG Version: 6.00 Build 0)  -->
<svg version="1.1" id="Layer_1" xmlns="http://www.w3.org/2000/svg" xmlns:xlink="http://www.w3.org/1999/xlink" x="0px" y="0px"
	 viewBox="0 0 933.7 349.3" style="enable-background:new 0 0 933.7 349.3;" xml:space="preserve">
<style type="text/css">
	.st0{fill:#2733A0;}
	.st1{fill:#F1F1F1;}
	.st2{font-family:'FONTSPRINGDEMO-PODIUMSharp3.11Regular';}
	.st3{font-size:42.6503px;}
	.st4{font-family:'EgyptianWide';}
</style>
<rect class="st0" width="933.7" height="349.3"/>
<g>
	<g>
		<g>
			<ellipse class="st1" cx="193.8" cy="144.7" rx="16" ry="14.4"/>
			<g>
				<g>
					<g>
						<path class="st1" d="M198.9,154.5v9.2h-4.1c-0.3,0.1-0.6,0.1-0.9,0.1s-0.6-0.1-0.9-0.1h-4.1v-9.2c0.4,0.2,0.9,0.3,1.4,0.5
							c1.2,0.4,2.4,0.5,3.7,0.5s2.6-0.2,3.7-0.5C198,154.8,198.4,154.6,198.9,154.5z"/>
						<path class="st1" d="M198.9,54.2v80.9c-0.2-0.1-0.5-0.2-0.7-0.3c-1.4-0.5-2.8-0.7-4.4-0.7s-3,0.3-4.4,0.7
							c-0.2,0.1-0.5,0.2-0.7,0.3V54.2H198.9z"/>
						<path class="st1" d="M198,66h-8.4c-4.3,0-7.7-3.5-7.7-7.7V34.6c0-4.3,3.5-7.7,7.7-7.7h8.4c4.3,0,7.7,3.5,7.7,7.7v23.7
							C205.7,62.6,202.3,66,198,66z"/>
					</g>
					<g>
						<path class="st1" d="M182.7,148.7c0.1,0.4,0.3,0.7,0.5,1H92.8v-9.1h90c-0.1,0.3-0.2,0.5-0.3,0.8c-0.4,1-0.6,2.1-0.6,3.3v0
							C181.9,146.1,182.2,147.5,182.7,148.7z"/>
						<path class="st1" d="M294.4,140.6v9.1h-90c0.2-0.3,0.4-0.7,0.5-1c0.2-0.6,0.4-1.2,0.6-1.8c0.2-0.7,0.2-1.4,0.2-2.1
							c0-1.2-0.2-2.3-0.6-3.4c-0.1-0.3-0.2-0.6-0.3-0.8L294.4,140.6L294.4,140.6z"/>
						<path class="st1" d="M106,142.1v6c0,4.3-3.5,7.7-7.7,7.7h-28c-4.3,0-7.7-3.5-7.7-7.7v-6c0-4.3,3.5-7.7,7.7-7.7h28
							C102.5,134.4,106,137.9,106,142.1z"/>
						<path class="st1" d="M325.1,142.1v6c0,4.3-3.5,7.7-7.7,7.7h-28c-4.3,0-7.7-3.5-7.7-7.7v-6c0-4.3,3.5-7.7,7.7-7.7h28
							C321.6,134.4,325.1,137.9,325.1,142.1z"/>
					</g>
					<g>
						<path class="st1" d="M189.5,134.8c-0.2,0.1-0.5,0.2-0.7,0.3c-2.6,1.1-4.8,3.1-5.9,5.5c-0.1,0.3-0.2,0.5-0.3,0.8l-0.7-0.6
							l-0.2-0.2l-0.4-0.4L118.8,84l7.2-6.4l8.5,7.7l14.7,13.2l1.9,1.8L189.5,134.8z"/>
						<path class="st1" d="M221.6,163.7h-14.3l-0.8-0.7l-5.9-5.3l-0.1-0.1l-1.7-1.5l0,0l-0.6-0.6l-0.7-0.6c0.5-0.1,0.9-0.3,1.3-0.5
							c2.4-1,4.3-2.7,5.5-4.8c0.2-0.3,0.4-0.7,0.5-1l0.7,0.6l0.4,0.4l0.2,0.1l1.7,1.5l0,0l5.8,5.2l5.8,5.3L221.6,163.7z"/>
						<path class="st1" d="M134.1,87.1l-4.7,4.2c-3.3,3-8.8,3-12.1,0L98.7,74.6c-3.3-3-3.3-7.9,0-10.9l4.7-4.2c3.3-3,8.8-3,12.1,0
							l18.6,16.7C137.4,79.2,137.4,84.1,134.1,87.1z"/>
					</g>
					<g>
						<path class="st1" d="M190.1,154.9l-1.3,1.2h0l0,0l-1.7,1.5l-0.1,0.1l-5.9,5.3h0l-0.8,0.7H166l2-1.8l5.8-5.3l5.8-5.2l0,0
							l1.7-1.6l0.2-0.1l1.1-1c0.2,0.4,0.3,0.7,0.5,1c1.2,2,3,3.6,5.3,4.7c0.1,0,0.2,0.1,0.2,0.1
							C189.2,154.6,189.6,154.8,190.1,154.9z"/>
						<path class="st1" d="M268.5,84.3l-8.2,7.4l-8.1,7.3l-6.6,5.9l-1.9,1.8l-38.5,34.7c-0.1-0.3-0.2-0.6-0.3-0.8
							c-0.8-1.7-2.1-3.2-3.7-4.3c-0.7-0.5-1.4-0.9-2.2-1.2c-0.2-0.1-0.5-0.2-0.7-0.3l0.7-0.6l0,0l0.6-0.5l7.6-6.8l46.1-41.5l8.2-7.4
							L268.5,84.3z"/>
						<path class="st1" d="M284.3,59.4l4.7,4.2c3.4,3,3.4,7.9,0,10.9l-18.6,16.7c-3.4,3-8.8,3-12.1,0l-4.7-4.2
							c-3.4-3-3.4-7.9,0-10.9l18.6-16.7C275.5,56.4,280.9,56.4,284.3,59.4z"/>
					</g>
					<g>
						<g>
							<path class="st1" d="M225.5,140.6c0-0.2-0.1-0.4-0.1-0.6c0-0.1-0.1-0.2-0.1-0.4c-0.8-3.8-2.4-7.4-4.6-10.5
								c-0.2-0.3-0.5-0.7-0.8-1c-0.3-0.3-0.6-0.7-0.8-1c-1.8-2.1-3.9-3.9-6.2-5.5c-0.3-0.2-0.6-0.4-1-0.6c-3.5-2.2-7.5-3.7-11.8-4.5
								c-0.4-0.1-0.8-0.1-1.2-0.2c-1.6-0.2-3.3-0.4-5.1-0.4s-3.4,0.1-5.1,0.4c-0.4,0.1-0.8,0.1-1.2,0.2c-4.3,0.8-8.3,2.3-11.8,4.5
								c-0.3,0.2-0.6,0.4-1,0.6c-2.7,1.8-5.1,4-7.1,6.5c-0.3,0.3-0.5,0.7-0.8,1c-2.2,3.1-3.9,6.7-4.6,10.5c-0.1,0.3-0.1,0.7-0.2,1
								c-0.2,1.4-0.3,2.8-0.3,4.2c0,1.7,0.2,3.3,0.5,4.9c0.1,0.4,0.2,0.8,0.3,1.2c0.1,0.3,0.2,0.6,0.2,0.9c0.9,3.3,2.5,6.4,4.6,9.2
								c0.2,0.3,0.5,0.6,0.7,0.9c0.5,0.6,1.1,1.2,1.6,1.8h23.2c0.3,0.1,0.6,0.1,0.9,0.1s0.6-0.1,0.9-0.1H218
								c0.6-0.6,1.1-1.2,1.6-1.8c0.2-0.3,0.5-0.6,0.7-0.9c2.3-3,4-6.4,4.9-10.1c0.1-0.4,0.2-0.8,0.3-1.2c0.3-1.6,0.5-3.2,0.5-4.9
								C225.9,143.3,225.8,141.9,225.5,140.6z M200.1,158c-0.3,0.1-0.5,0.2-0.8,0.3c-0.1,0.1-0.3,0.1-0.5,0.1
								c-1.6,0.5-3.3,0.8-5.1,0.8s-3.5-0.3-5.1-0.8c-0.1,0-0.3-0.1-0.4-0.1c-0.3-0.1-0.5-0.2-0.8-0.3c-0.2-0.1-0.3-0.1-0.5-0.2
								c-0.4-0.1-0.7-0.3-1-0.5c-2.7-1.4-4.9-3.4-6.3-5.9c-0.1-0.2-0.2-0.3-0.3-0.5c-0.1-0.2-0.2-0.3-0.3-0.5
								c-0.1-0.2-0.2-0.5-0.3-0.7c-0.5-1.1-0.8-2.3-0.9-3.6c0-0.2-0.1-0.4-0.1-0.6v-0.1c0-0.1,0-0.2,0-0.3c0-0.1,0-0.3,0-0.4
								c0-0.2,0-0.4,0-0.6c0-0.2,0-0.4,0-0.6c0.1-1,0.3-2,0.6-2.9c0.1-0.3,0.2-0.5,0.3-0.8c0-0.1,0.1-0.2,0.1-0.2
								c0.1-0.3,0.3-0.6,0.5-0.9c1.5-2.8,3.9-5.1,7-6.6c0.4-0.2,0.7-0.3,1.1-0.5c0,0,0,0,0,0c0.4-0.2,0.8-0.3,1.2-0.4
								c1.6-0.5,3.3-0.7,5.1-0.7s3.5,0.3,5.1,0.7c0.4,0.1,0.8,0.3,1.2,0.4c0,0,0,0,0,0c0.4,0.1,0.8,0.3,1.1,0.5c1,0.5,1.9,1,2.8,1.7
								c1.8,1.3,3.2,3,4.2,4.9c0.2,0.3,0.3,0.6,0.5,1c0,0.1,0.1,0.1,0.1,0.2c0.1,0.3,0.2,0.5,0.3,0.8c0.3,0.9,0.5,1.9,0.6,2.9
								c0,0.1,0,0.2,0,0.4c0,0.1,0,0.2,0,0.3c0,0.2,0,0.4,0,0.6v0.1c0,0.2,0,0.4,0,0.6c0,0.5-0.1,1-0.2,1.4v0
								c-0.2,1-0.4,1.9-0.8,2.8c-0.1,0.2-0.2,0.5-0.3,0.7c-0.1,0.2-0.2,0.3-0.2,0.5s-0.2,0.3-0.3,0.5c-1.6,2.8-4.2,5-7.3,6.3
								C200.5,157.8,200.3,157.9,200.1,158z"/>
							<path class="st1" d="M217.5,141.6c-0.1-0.4-0.1-0.7-0.2-1.1c-0.6-2.6-1.7-5.1-3.2-7.2c-0.5-0.7-1-1.4-1.6-2.1
								c-1.6-1.7-3.4-3.2-5.4-4.5c-2.4-1.5-5.2-2.5-8.1-3.1c-1.6-0.3-3.3-0.5-5.1-0.5s-3.4,0.2-5.1,0.5c-2.9,0.6-5.7,1.6-8.1,3.1
								c-2.8,1.7-5.2,3.9-7.1,6.5c-1.5,2.2-2.6,4.6-3.2,7.2c-0.3,1.4-0.4,2.8-0.4,4.2c0,1.7,0.2,3.4,0.6,4.9c0,0,0,0,0,0
								c0.7,2.5,1.8,4.9,3.3,6.9c0.8,1.1,1.7,2.1,2.6,3c1.4,1.3,2.9,2.4,4.6,3.4h0c0.4,0.2,0.9,0.5,1.3,0.7h10.4
								c0.3,0.1,0.6,0.1,0.9,0.1s0.6-0.1,0.9-0.1h10.4c0.4-0.2,0.9-0.4,1.3-0.7c2.9-1.6,5.4-3.8,7.2-6.4c0,0,0,0,0,0
								c1.5-2.1,2.7-4.4,3.3-6.9c0.4-1.6,0.6-3.2,0.6-4.9C217.7,143.7,217.6,142.6,217.5,141.6z M207.4,144.8c0,0.4,0,0.9-0.1,1.3
								c-0.1,1.3-0.5,2.5-1.1,3.6c0,0.1,0,0.1-0.1,0.1c-1.4,2.9-4.1,5.1-7.3,6.3h0c-1.6,0.6-3.3,0.9-5.1,0.9c-1.8,0-3.5-0.3-5-0.9h0
								c0,0,0,0,0,0c-0.7-0.3-1.4-0.6-2.1-1c-2.3-1.3-4.1-3.1-5.2-5.3c0-0.1,0-0.1-0.1-0.1c-0.6-1.3-1-2.7-1.1-4.2
								c0-0.2,0-0.5,0-0.7c0-1.5,0.3-2.9,0.8-4.2c0.1-0.1,0.1-0.2,0.2-0.4c1.3-2.9,3.8-5.3,7-6.6c0.2-0.1,0.4-0.2,0.6-0.2
								c1.6-0.6,3.3-0.9,5.1-0.9s3.5,0.3,5.1,0.9c0.2,0.1,0.4,0.1,0.6,0.2c1.2,0.5,2.3,1.1,3.3,1.9c1.6,1.3,2.9,2.9,3.7,4.7v0
								c0.1,0.1,0.1,0.2,0.2,0.4C207.1,141.9,207.4,143.3,207.4,144.8z"/>
							<path class="st1" d="M206.6,140.6c-0.1-0.1-0.1-0.2-0.2-0.4v0c-0.8-1.8-2.1-3.4-3.7-4.7c-1-0.8-2.1-1.4-3.3-1.9
								c-0.2-0.1-0.4-0.2-0.6-0.2c-1.6-0.6-3.3-0.9-5.1-0.9s-3.5,0.3-5.1,0.9c-0.2,0.1-0.4,0.1-0.6,0.2c-3.2,1.3-5.7,3.7-7,6.6
								c-0.1,0.1-0.1,0.2-0.2,0.4c-0.5,1.3-0.8,2.7-0.8,4.2c0,0.2,0,0.5,0,0.7c0.1,1.5,0.5,2.9,1.1,4.2c0,0.1,0.1,0.1,0.1,0.1
								c1.1,2.2,2.9,4.1,5.2,5.3c0.7,0.4,1.4,0.7,2.1,1c0,0,0,0,0,0h0c1.6,0.6,3.2,0.9,5,0.9c1.8,0,3.5-0.3,5.1-0.9h0
								c3.2-1.2,5.9-3.4,7.3-6.3c0-0.1,0.1-0.1,0.1-0.1c0.6-1.1,0.9-2.3,1.1-3.6c0.1-0.4,0.1-0.9,0.1-1.3
								C207.4,143.3,207.1,141.9,206.6,140.6z M198.9,154.5c-0.4,0.2-0.9,0.3-1.3,0.5c-1.2,0.4-2.4,0.5-3.7,0.5s-2.6-0.2-3.7-0.5
								c-0.5-0.1-0.9-0.3-1.4-0.5c-0.1,0-0.1-0.1-0.2-0.1c-2.3-1-4.1-2.6-5.3-4.7c-0.2-0.3-0.4-0.7-0.5-1c-0.5-1.2-0.8-2.5-0.8-3.9
								v-0.1c0-1.1,0.2-2.3,0.6-3.3c0.1-0.3,0.2-0.6,0.3-0.8c1.1-2.4,3.3-4.4,5.9-5.5c0.2-0.1,0.5-0.2,0.7-0.3
								c1.4-0.5,2.8-0.7,4.4-0.7c1.5,0,3,0.3,4.4,0.7c0.2,0.1,0.5,0.2,0.7,0.3c0.8,0.3,1.5,0.7,2.2,1.2c1.6,1.1,2.9,2.6,3.7,4.3
								c0.1,0.3,0.2,0.5,0.3,0.8c0.4,1.1,0.6,2.2,0.6,3.4c0,0.7-0.1,1.4-0.2,2.1c-0.1,0.6-0.3,1.2-0.6,1.8c-0.1,0.3-0.3,0.7-0.5,1
								C203.2,151.8,201.2,153.5,198.9,154.5z"/>
						</g>
						<path class="st1" d="M271,140.6c-1-15.9-8-30.3-18.9-41.6c-2.2-2.3-4.6-4.4-7.1-6.5h0c-12.5-9.9-28.5-16.3-46.2-17.3
							c-1.7-0.1-3.4-0.2-5.1-0.2s-3.4,0.1-5.1,0.2c-17.6,1-33.7,7.4-46.2,17.3c-2.5,2-4.9,4.2-7.1,6.5
							c-10.9,11.3-17.8,25.7-18.8,41.6c-0.1,1.4-0.1,2.8-0.1,4.2c0,1.7,0.1,3.3,0.2,4.9c0.4,4.8,1.3,9.5,2.7,14H132
							c-1.7-4.5-2.8-9.1-3.2-14c-0.1-1.6-0.2-3.3-0.2-4.9c0-1.4,0.1-2.8,0.2-4.2c1-12.9,6.6-24.6,15.3-33.9c2.2-2.3,4.6-4.5,7.1-6.5
							c10.2-8,23.3-13.1,37.6-14.1c1.7-0.1,3.4-0.2,5.1-0.2c1.7,0,3.4,0.1,5.1,0.2c14.3,1,27.4,6.2,37.6,14.1c2.6,2,4.9,4.2,7.1,6.5
							c8.7,9.3,14.3,21,15.3,33.9c0.1,1.4,0.2,2.8,0.2,4.2c0,1.7-0.1,3.3-0.2,4.9c-0.5,4.9-1.6,9.6-3.2,14h12.6
							c1.4-4.5,2.3-9.2,2.7-14c0.1-1.6,0.2-3.3,0.2-4.9C271.2,143.4,271.1,142,271,140.6z"/>
						<path class="st1" d="M261.7,140.6c-1-13.6-6.9-25.9-16.1-35.6c-2.2-2.3-4.6-4.5-7.1-6.5c-10.8-8.4-24.5-13.9-39.6-14.9
							c-1.7-0.1-3.4-0.2-5.1-0.2c-1.7,0-3.4,0.1-5.1,0.2c-15.1,1-28.8,6.4-39.6,14.9c-2.6,2-4.9,4.2-7.1,6.5
							c-9.2,9.7-15.1,22.1-16.1,35.6c-0.1,1.4-0.2,2.8-0.2,4.2c0,1.7,0.1,3.3,0.2,4.9c0.4,4.9,1.5,9.6,3.1,14h2.9
							c-1.7-4.5-2.8-9.1-3.2-14c-0.1-1.6-0.2-3.3-0.2-4.9c0-1.4,0.1-2.8,0.2-4.2c1-12.9,6.6-24.6,15.3-33.9c2.2-2.3,4.6-4.5,7.1-6.5
							c10.2-8,23.3-13.1,37.6-14.1c1.7-0.1,3.4-0.2,5.1-0.2c1.7,0,3.4,0.1,5.1,0.2c14.3,1,27.4,6.2,37.6,14.1c2.6,2,4.9,4.2,7.1,6.5
							c8.7,9.3,14.3,21,15.3,33.9c0.1,1.4,0.2,2.8,0.2,4.2c0,1.7-0.1,3.3-0.2,4.9c-0.5,4.9-1.6,9.6-3.2,14h2.9
							c1.6-4.5,2.7-9.2,3.1-14c0.1-1.6,0.2-3.3,0.2-4.9C261.9,143.4,261.8,142,261.7,140.6z"/>
					</g>
				</g>
				<g>
					<ellipse class="st1" cx="193.8" cy="144.8" rx="4.6" ry="4.2"/>
					<ellipse class="st1" cx="180.6" cy="132.1" rx="2.6" ry="2.4"/>
					<ellipse class="st1" cx="193.8" cy="128" rx="2.6" ry="2.3"/>
					<ellipse class="st1" cx="208.7" cy="132.1" rx="2.6" ry="2.4"/>
					<ellipse class="st1" cx="212.4" cy="144.8" rx="2.6" ry="2.4"/>
					<path class="st1" d="M196.4,161.5c0,1-0.7,1.9-1.7,2.2c-0.3,0.1-0.6,0.1-0.9,0.1s-0.6-0.1-0.9-0.1c-1-0.3-1.7-1.2-1.7-2.2
						c0-1.3,1.2-2.3,2.6-2.3S196.4,160.2,196.4,161.5z"/>
					<ellipse class="st1" cx="180.2" cy="157" rx="2.6" ry="2.4"/>
					<ellipse class="st1" cx="175" cy="145.1" rx="2.6" ry="2.4"/>
					<ellipse class="st1" cx="206.6" cy="157" rx="2.6" ry="2.4"/>
				</g>
			</g>
		</g>
	</g>
	<path class="st1" d="M255.6,163.7c-2.7,7.2-7,13.8-12.4,19.5l-21.6-19.5H255.6z"/>
	<path class="st1" d="M188.8,173.3v30.1c-14.1-1-27-6-37.2-13.8l23.7-21.3c0.4,0.2,0.7,0.5,1.1,0.7c3.3,1.9,7.1,3.4,11.1,4.1
		C187.9,173.1,188.3,173.2,188.8,173.3z"/>
	<path class="st1" d="M192.9,163.7h1.8c-0.3,0.1-0.6,0.1-0.9,0.1S193.2,163.8,192.9,163.7z"/>
	<path class="st1" d="M236,189.6c-10.2,7.8-23,12.8-37.2,13.8v-30.1c0.4-0.1,0.8-0.1,1.2-0.2c4-0.7,7.8-2.1,11.1-4.1
		c0.4-0.2,0.8-0.4,1.1-0.7L236,189.6z"/>
	<path class="st1" d="M166,163.7l-21.6,19.5c-5.4-5.6-9.7-12.3-12.4-19.5H166z"/>
	<path class="st1" d="M325.1,163.7c-0.2,65.1-58.9,117.8-131.2,117.8c-72.3,0-131-52.7-131.2-117.8h56.8
		c3.2,10.2,8.9,19.5,16.5,27.2L128,198c-3.3-2-7.9-1.6-10.8,1l-18.6,16.7c-3.3,3-3.3,7.9,0,10.9l4.7,4.2c3.3,3,8.8,3,12.1,0
		l18.6-16.7c2.9-2.6,3.3-6.7,1.1-9.7l7.9-7.1c12.4,9.7,28.2,15.9,45.7,17v10c-3.9,0.4-6.8,3.7-6.8,7.7v23.7c0,4.3,3.5,7.7,7.7,7.7
		h8.4c4.3,0,7.7-3.5,7.7-7.7V232c0-4-3-7.2-6.9-7.7v-10c17.4-1,33.3-7.2,45.7-17l7.9,7.1c-2.2,3-1.8,7.1,1.1,9.7l18.6,16.7
		c3.4,3,8.8,3,12.1,0l4.7-4.2c3.4-3,3.4-7.9,0-10.9L270.4,199c-2.9-2.6-7.5-3-10.8-1l-7.8-7.1c7.6-7.7,13.3-17,16.5-27.2H325.1z"/>
</g>
<path class="st1" d="M395.3,205.7v5h-22.2v-9.9h-37.5v9.9h-45.9v-46.8h57C363.8,184.1,395.3,186.6,395.3,205.7z"/>
<path class="st1" d="M416.9,163.9h25.3v46.8h-9.4v-9.8C432.8,183.1,426,171.9,416.9,163.9z"/>
<path class="st1" d="M537.8,163.9h8.4v46.8h-66.5V195h12.1C523.3,195,534.7,184.2,537.8,163.9z"/>
<rect x="583.8" y="163.9" class="st1" width="23.7" height="46.8"/>
<rect x="645" y="163.9" class="st1" width="8.7" height="46.8"/>
<rect x="691.2" y="163.9" class="st1" width="23.7" height="46.8"/>
<rect x="752.4" y="163.9" class="st1" width="8.9" height="46.8"/>
<polygon class="st1" points="795.7,163.9 809,210.7 796.6,210.7 795.6,163.9 "/>
<polygon class="st1" points="826,173.5 823.5,163.9 826,163.9 "/>
<path class="st1" d="M436.7,194.8v31.9c0,27.8-8.8,44.5-48.6,44.5s-48.6-17.6-48.6-45.2v-31.2H377v32c0,4.6,2.5,7.3,11.1,7.3
	s11.1-2.5,11.1-7v-27.4c0-19-31.5-21.6-48.6-41.8c-6.4-7.5-10.8-17.5-10.8-31.8V94.3c0-27.8,9.4-44.5,48.3-44.5s48.3,17.6,48.3,45.2
	v31.2l-37.4,0v-32c0-4.6-2.5-7.3-10.9-7.3c-8.4,0-10.9,2.5-10.9,7v27.3c0,17.3,26,21,43.6,36.6C429.8,165.9,436.7,177.1,436.7,194.8
	z"/>
<path class="st1" d="M495.7,52.9h-49.6V268h37.5v-79h12.1c31.5,0,42.9-10.8,46-31.1c0.7-4.6,1-9.7,1-15.2V99.3
	C542.7,69.2,534.3,52.9,495.7,52.9z M483.6,91.9h12.1c7.5,0,9.4,2.7,9.4,7.6v42.9c0,5.2-1.9,7.6-9.4,7.6h-12.1V91.9z"/>
<path class="st1" d="M599.5,49.8c-40.5,0-49.4,17.8-49.4,48.5v124.4c0,30.6,8.9,48.5,49.4,48.5s49.4-17.8,49.4-48.5V98.3
	C648.8,67.7,640,49.8,599.5,49.8z M611.3,222.4c0,5.6-2.3,9.5-11.8,9.5c-9.5,0-11.8-3.9-11.8-9.5V98.5c0-5.6,2.3-9.5,11.8-9.5
	c9.5,0,11.8,3.9,11.8,9.5V222.4z"/>
<path class="st1" d="M706.9,49.8c-40.5,0-49.4,17.8-49.4,48.5v124.4c0,30.6,8.9,48.5,49.4,48.5s49.4-17.8,49.4-48.5V98.3
	C756.3,67.7,747.4,49.8,706.9,49.8z M718.7,222.4c0,5.6-2.3,9.5-11.8,9.5c-9.5,0-11.8-3.9-11.8-9.5V98.5c0-5.6,2.3-9.5,11.8-9.5
	c9.5,0,11.8,3.9,11.8,9.5V222.4z"/>
<polygon class="st1" points="865.7,52.9 865.7,268 830.8,268 812.9,204.7 799.6,157.9 799.5,157.4 799.5,157.9 800.5,204.7 
	801.8,268 765.2,268 765.2,52.9 800.1,52.9 827.4,157.9 829.9,167.5 829.9,157.9 829,52.9 "/>
<rect x="869.2" y="163.9" class="st1" width="5.5" height="46.8"/>
<text transform="matrix(0.8497 0 0 1 73.9438 324.6157)" class="st1 st2 st3">Seafarer</text>
<text transform="matrix(0.8497 0 0 1 203.0303 324.6157)" class="st1 st4 st3">&apos;</text>
<text transform="matrix(0.8497 0 0 1 214.7729 324.6157)" class="st1 st2 st3">s Program Onwards to Outstanding Nutrition</text>
</svg>
