<?xml version="1.0" encoding="utf-8"?>
<!-- Generator: Adobe Illustrator 27.1.1, SVG Export Plug-In . SVG Version: 6.00 Build 0)  -->
<svg version="1.1" id="Layer_1" xmlns="http://www.w3.org/2000/svg" xmlns:xlink="http://www.w3.org/1999/xlink" x="0px" y="0px"
	 viewBox="0 0 933.7 349.3" style="enable-background:new 0 0 933.7 349.3;" xml:space="preserve">
<style type="text/css">
	.st0{fill:#F1F1F1;}
</style>
<g>
	<rect x="257.6" y="183.7" class="st0" width="667" height="36.8"/>
	<g>
		<g>
			<g>
				<ellipse class="st0" cx="165.3" cy="161.2" rx="18.9" ry="17"/>
				<g>
					<g>
						<g>
							<path class="st0" d="M171.3,172.8v10.9h-4.9c-0.3,0.1-0.7,0.2-1.1,0.2s-0.7-0.1-1.1-0.2h-4.9v-10.9c0.5,0.2,1,0.4,1.6,0.6
								c1.4,0.4,2.9,0.6,4.4,0.6c1.5,0,3-0.2,4.4-0.6C170.2,173.2,170.8,173,171.3,172.8z"/>
							<path class="st0" d="M171.3,54.3v95.6c-0.3-0.1-0.6-0.2-0.8-0.3c-1.6-0.6-3.3-0.9-5.2-0.9s-3.5,0.3-5.1,0.9
								c-0.3,0.1-0.6,0.2-0.8,0.3V54.3H171.3z"/>
							<path class="st0" d="M170.2,68.3h-9.9c-5,0-9.1-4.1-9.1-9.1v-28c0-5,4.1-9.1,9.1-9.1h9.9c5,0,9.1,4.1,9.1,9.1v28
								C179.4,64.2,175.3,68.3,170.2,68.3z"/>
						</g>
						<g>
							<path class="st0" d="M152.2,165.9c0.2,0.4,0.4,0.8,0.6,1.2H46v-10.8h106.4c-0.2,0.3-0.3,0.6-0.4,1c-0.4,1.2-0.7,2.5-0.7,3.9
								v0C151.2,162.9,151.6,164.5,152.2,165.9z"/>
							<path class="st0" d="M284.1,156.4v10.8H177.8c0.2-0.4,0.4-0.8,0.6-1.2c0.3-0.7,0.5-1.4,0.7-2.1c0.2-0.8,0.3-1.7,0.3-2.5
								c0-1.4-0.2-2.7-0.7-4c-0.1-0.3-0.2-0.6-0.4-1L284.1,156.4L284.1,156.4z"/>
							<path class="st0" d="M61.5,158.2v7.1c0,5-4.1,9.1-9.1,9.1H19.3c-5,0-9.1-4.1-9.1-9.1v-7.1c0-5,4.1-9.1,9.1-9.1h33.1
								C57.4,149.1,61.5,153.2,61.5,158.2z"/>
							<path class="st0" d="M320.4,158.2v7.1c0,5-4.1,9.1-9.1,9.1h-33.1c-5,0-9.1-4.1-9.1-9.1v-7.1c0-5,4.1-9.1,9.1-9.1h33.1
								C316.3,149.1,320.4,153.2,320.4,158.2z"/>
						</g>
						<g>
							<path class="st0" d="M160.2,149.5c-0.3,0.1-0.6,0.2-0.8,0.3c-3.1,1.3-5.6,3.7-7,6.5c-0.2,0.3-0.3,0.6-0.4,1l-0.8-0.7
								l-0.2-0.2l-0.5-0.4L76.7,89.6l8.5-7.6l10,9l17.3,15.6l2.3,2.1L160.2,149.5z"/>
							<path class="st0" d="M198.1,183.7h-16.9l-0.9-0.8l-6.9-6.2l-0.1-0.1l-2-1.8l0,0l-0.7-0.7l-0.8-0.7c0.5-0.2,1.1-0.4,1.6-0.6
								c2.8-1.2,5.1-3.2,6.5-5.6c0.2-0.4,0.4-0.8,0.6-1.2l0.8,0.7l0.5,0.5l0.2,0.2l2,1.8l0,0l6.9,6.2l6.9,6.2L198.1,183.7z"/>
							<path class="st0" d="M94.7,93.1l-5.6,5c-4,3.6-10.4,3.6-14.3,0L52.8,78.4c-4-3.6-4-9.3,0-12.9l5.6-5c4-3.6,10.4-3.6,14.3,0
								l21.9,19.8C98.7,83.8,98.7,89.6,94.7,93.1z"/>
						</g>
						<g>
							<path class="st0" d="M160.9,173.3l-1.6,1.4h0l0,0l-2,1.8l-0.1,0.1l-6.9,6.2h0l-0.9,0.8h-16.9l2.4-2.1l6.9-6.2l6.8-6.2l0,0
								l2-1.8l0.2-0.2l1.3-1.2c0.2,0.4,0.4,0.8,0.6,1.2c1.4,2.4,3.6,4.3,6.2,5.5c0.1,0,0.2,0.1,0.3,0.1
								C159.8,173,160.4,173.2,160.9,173.3z"/>
							<path class="st0" d="M253.5,89.9l-9.7,8.7l-9.6,8.7l-7.8,7l-2.3,2.1l-45.5,41c-0.1-0.3-0.2-0.7-0.4-1c-0.9-2-2.5-3.8-4.4-5.1
								c-0.8-0.6-1.7-1.1-2.6-1.4c-0.3-0.1-0.6-0.2-0.8-0.3l0.8-0.7l0,0l0.7-0.6l8.9-8L235.4,91l9.7-8.7L253.5,89.9z"/>
							<path class="st0" d="M272.2,60.4l5.6,5c4,3.6,4,9.3,0,12.9l-21.9,19.8c-4,3.6-10.4,3.6-14.3,0l-5.6-5c-4-3.6-4-9.3,0-12.9
								l21.9-19.8C261.8,56.9,268.2,56.9,272.2,60.4z"/>
						</g>
						<g>
							<g>
								<path class="st0" d="M202.8,156.4c0-0.3-0.1-0.5-0.1-0.8c0-0.2-0.1-0.3-0.1-0.4c-0.9-4.5-2.8-8.7-5.5-12.4
									c-0.3-0.4-0.6-0.8-0.9-1.2c-0.3-0.4-0.6-0.8-1-1.2c-2.1-2.5-4.6-4.6-7.4-6.5c-0.4-0.2-0.8-0.5-1.2-0.7
									c-4.1-2.5-8.8-4.4-13.9-5.3c-0.5-0.1-1-0.2-1.5-0.2c-1.9-0.3-3.9-0.4-6-0.4s-4,0.1-6,0.4c-0.5,0.1-1,0.1-1.5,0.2
									c-5.1,0.9-9.8,2.7-13.9,5.3c-0.4,0.2-0.8,0.5-1.1,0.7c-3.2,2.1-6.1,4.7-8.4,7.7c-0.3,0.4-0.6,0.8-0.9,1.2
									c-2.7,3.7-4.6,7.9-5.5,12.4c-0.1,0.4-0.2,0.8-0.2,1.2c-0.3,1.6-0.4,3.3-0.4,4.9c0,2,0.2,3.9,0.6,5.8c0.1,0.5,0.2,1,0.3,1.5
									c0.1,0.4,0.2,0.7,0.3,1.1c1.1,3.9,3,7.6,5.4,10.9c0.3,0.4,0.5,0.7,0.8,1c0.6,0.7,1.2,1.4,1.9,2.1h27.5
									c0.3,0.1,0.7,0.2,1.1,0.2s0.7-0.1,1.1-0.2h27.5c0.7-0.7,1.3-1.4,1.9-2.1c0.3-0.3,0.5-0.7,0.8-1c2.7-3.6,4.7-7.6,5.7-12
									c0.1-0.5,0.2-1,0.3-1.5c0.4-1.9,0.6-3.8,0.6-5.8C203.2,159.6,203.1,158,202.8,156.4z M172.8,176.9c-0.3,0.1-0.6,0.2-0.9,0.3
									c-0.2,0.1-0.4,0.1-0.5,0.2c-1.9,0.6-3.9,0.9-6,0.9s-4.1-0.3-6-0.9c-0.2,0-0.4-0.1-0.5-0.2c-0.3-0.1-0.6-0.2-0.9-0.3
									c-0.2-0.1-0.4-0.2-0.6-0.3c-0.4-0.2-0.8-0.4-1.2-0.6c-3.2-1.6-5.8-4-7.4-6.9c-0.1-0.2-0.2-0.4-0.3-0.6
									c-0.1-0.2-0.2-0.4-0.3-0.6c-0.1-0.3-0.3-0.6-0.4-0.9c-0.5-1.3-0.9-2.8-1.1-4.2c0-0.2-0.1-0.5-0.1-0.7v-0.1
									c0-0.1,0-0.2,0-0.4c0-0.2,0-0.3,0-0.5c0-0.3,0-0.5,0-0.8c0-0.2,0-0.5,0-0.8c0.1-1.2,0.4-2.3,0.7-3.4
									c0.1-0.3,0.2-0.6,0.3-0.9c0-0.1,0.1-0.2,0.1-0.3c0.2-0.4,0.3-0.8,0.5-1.1c1.7-3.3,4.7-6.1,8.3-7.8c0.4-0.2,0.9-0.4,1.3-0.6
									c0,0,0,0,0,0c0.5-0.2,1-0.4,1.4-0.5c1.9-0.6,3.9-0.9,6-0.9s4.1,0.3,6,0.9c0.5,0.1,1,0.3,1.5,0.5c0,0,0,0,0,0
									c0.4,0.2,0.9,0.4,1.3,0.6c1.2,0.6,2.3,1.2,3.3,2c2.1,1.6,3.8,3.5,5,5.8c0.2,0.4,0.4,0.7,0.5,1.1c0,0.1,0.1,0.2,0.1,0.3
									c0.1,0.3,0.2,0.6,0.3,0.9c0.4,1.1,0.6,2.2,0.7,3.4c0,0.1,0,0.3,0,0.4c0,0.1,0,0.2,0,0.3c0,0.2,0,0.4,0,0.7v0.1
									c0,0.3,0,0.5,0,0.8c0,0.6-0.1,1.1-0.2,1.7v0c-0.2,1.1-0.5,2.3-0.9,3.3c-0.1,0.3-0.2,0.6-0.4,0.9c-0.1,0.2-0.2,0.4-0.3,0.6
									c-0.1,0.2-0.2,0.4-0.3,0.6c-1.9,3.3-4.9,5.9-8.6,7.5C173.2,176.7,173,176.8,172.8,176.9z"/>
								<path class="st0" d="M193.3,157.6c-0.1-0.4-0.1-0.8-0.2-1.2c-0.7-3.1-2-6-3.8-8.6c-0.6-0.8-1.2-1.7-1.9-2.4
									c-1.8-2.1-4-3.8-6.4-5.3c-2.9-1.7-6.1-3-9.6-3.7c-1.9-0.4-3.9-0.6-6-0.6s-4.1,0.2-6,0.6c-3.5,0.7-6.7,1.9-9.6,3.7
									c-3.4,2-6.2,4.6-8.4,7.7c-1.8,2.6-3.1,5.5-3.8,8.6c-0.3,1.6-0.5,3.2-0.5,4.9c0,2,0.3,4,0.7,5.8c0,0,0,0,0,0
									c0.8,3,2.1,5.7,3.9,8.2c0.9,1.3,2,2.4,3.1,3.5c1.6,1.5,3.5,2.9,5.4,4h0c0.5,0.3,1,0.6,1.6,0.8h12.3c0.3,0.1,0.7,0.2,1.1,0.2
									c0.4,0,0.7-0.1,1.1-0.2h12.3c0.5-0.3,1.1-0.5,1.6-0.8c3.4-1.9,6.3-4.5,8.6-7.5c0,0,0,0,0,0c1.8-2.5,3.2-5.2,3.9-8.2
									c0.5-1.9,0.7-3.8,0.7-5.8C193.6,160,193.5,158.8,193.3,157.6z M181.4,161.3c0,0.5,0,1.1-0.1,1.6c-0.2,1.5-0.6,2.9-1.3,4.3
									c0,0.1,0,0.1-0.1,0.2c-1.7,3.4-4.8,6.1-8.7,7.4h0c-1.8,0.7-3.9,1-6,1c-2.1,0-4.1-0.4-6-1h0c0,0,0,0,0,0
									c-0.9-0.3-1.7-0.7-2.5-1.1c-2.7-1.5-4.8-3.7-6.2-6.3c0-0.1,0-0.1-0.1-0.2c-0.8-1.5-1.2-3.2-1.3-5c0-0.3,0-0.5,0-0.8
									c0-1.7,0.3-3.4,1-4.9c0.1-0.1,0.1-0.3,0.2-0.4c1.5-3.5,4.5-6.3,8.2-7.8c0.2-0.1,0.5-0.2,0.7-0.3c1.9-0.7,3.9-1,6-1
									s4.1,0.4,6,1c0.2,0.1,0.5,0.2,0.7,0.3c1.4,0.6,2.7,1.4,3.9,2.3c1.9,1.5,3.4,3.4,4.3,5.5v0c0.1,0.1,0.1,0.3,0.2,0.4
									C181.1,157.9,181.4,159.6,181.4,161.3z"/>
								<path class="st0" d="M180.4,156.4c-0.1-0.1-0.1-0.3-0.2-0.4v0c-0.9-2.1-2.4-4-4.3-5.5c-1.2-0.9-2.5-1.7-3.9-2.3
									c-0.2-0.1-0.5-0.2-0.7-0.3c-1.8-0.7-3.9-1-6-1s-4.1,0.4-6,1c-0.2,0.1-0.5,0.2-0.7,0.3c-3.7,1.5-6.7,4.3-8.2,7.8
									c-0.1,0.1-0.1,0.3-0.2,0.4c-0.6,1.5-1,3.2-1,4.9c0,0.3,0,0.6,0,0.8c0.1,1.8,0.6,3.5,1.3,5c0,0.1,0.1,0.1,0.1,0.2
									c1.3,2.6,3.5,4.8,6.2,6.3c0.8,0.4,1.6,0.8,2.5,1.1c0,0,0,0,0,0h0c1.8,0.7,3.8,1,6,1c2.1,0,4.1-0.4,6-1h0
									c3.8-1.4,6.9-4.1,8.7-7.4c0-0.1,0.1-0.1,0.1-0.2c0.7-1.3,1.1-2.8,1.3-4.3c0.1-0.5,0.1-1.1,0.1-1.6
									C181.4,159.6,181.1,157.9,180.4,156.4z M171.3,172.8c-0.5,0.2-1,0.4-1.6,0.6c-1.4,0.4-2.9,0.6-4.4,0.6s-3-0.2-4.4-0.6
									c-0.6-0.2-1.1-0.4-1.6-0.6c-0.1,0-0.2-0.1-0.3-0.1c-2.7-1.2-4.9-3.1-6.2-5.5c-0.2-0.4-0.4-0.8-0.6-1.2c-0.6-1.4-1-3-1-4.6
									v-0.1c0-1.4,0.2-2.7,0.7-3.9c0.1-0.3,0.2-0.6,0.4-1c1.4-2.9,3.9-5.2,7-6.5c0.3-0.1,0.6-0.2,0.8-0.3c1.6-0.6,3.3-0.9,5.2-0.9
									c1.8,0,3.6,0.3,5.2,0.9c0.3,0.1,0.6,0.2,0.8,0.3c0.9,0.4,1.8,0.9,2.6,1.4c1.9,1.3,3.4,3.1,4.4,5.1c0.2,0.3,0.3,0.6,0.4,1
									c0.5,1.3,0.7,2.6,0.7,4c0,0.9-0.1,1.7-0.3,2.5c-0.2,0.7-0.4,1.4-0.7,2.1c-0.2,0.4-0.4,0.8-0.6,1.2
									C176.4,169.6,174.1,171.6,171.3,172.8z"/>
							</g>
							<path class="st0" d="M256.5,156.4c-1.2-18.7-9.4-35.8-22.3-49.1c-2.6-2.7-5.4-5.3-8.4-7.6h0c-14.7-11.7-33.7-19.3-54.6-20.5
								c-2-0.1-4-0.2-6-0.2c-2,0-4,0.1-6,0.2c-20.9,1.2-39.8,8.7-54.5,20.5c-3,2.4-5.8,4.9-8.4,7.6c-12.9,13.3-21,30.4-22.3,49.1
								c-0.1,1.6-0.2,3.3-0.2,4.9c0,2,0.1,3.9,0.2,5.8c0.4,5.7,1.5,11.3,3.2,16.6h14.9c-2-5.3-3.3-10.8-3.8-16.6
								c-0.2-1.9-0.3-3.9-0.3-5.8c0-1.7,0.1-3.3,0.2-4.9c1.2-15.2,7.8-29.1,18.1-40c2.6-2.7,5.4-5.3,8.4-7.7
								c12.1-9.4,27.5-15.5,44.5-16.7c2-0.1,4-0.2,6-0.2c2,0,4,0.1,6,0.2c16.9,1.2,32.4,7.3,44.5,16.7c3,2.4,5.8,4.9,8.4,7.7
								c10.3,10.9,16.9,24.8,18.1,40c0.1,1.6,0.2,3.3,0.2,4.9c0,2-0.1,3.9-0.3,5.8c-0.5,5.8-1.8,11.3-3.8,16.6h14.9
								c1.7-5.3,2.8-10.9,3.2-16.6c0.2-1.9,0.2-3.9,0.2-5.8C256.7,159.6,256.7,158,256.5,156.4z"/>
							<path class="st0" d="M245.5,156.4c-1.2-16-8.2-30.6-19.1-42.1c-2.6-2.7-5.4-5.3-8.4-7.7c-12.7-10-28.9-16.4-46.8-17.6
								c-2-0.1-4-0.2-6-0.2c-2,0-4,0.1-6,0.2c-17.8,1.2-34,7.6-46.8,17.6c-3,2.4-5.8,4.9-8.4,7.7c-10.9,11.5-17.9,26.1-19.1,42.1
								c-0.1,1.6-0.2,3.3-0.2,4.9c0,2,0.1,3.9,0.3,5.8c0.5,5.7,1.7,11.3,3.7,16.6h3.4c-2-5.3-3.3-10.8-3.8-16.6
								c-0.2-1.9-0.3-3.9-0.3-5.8c0-1.7,0.1-3.3,0.2-4.9c1.2-15.2,7.8-29.1,18.1-40c2.6-2.7,5.4-5.3,8.4-7.7
								c12.1-9.4,27.5-15.5,44.5-16.7c2-0.1,4-0.2,6-0.2c2,0,4,0.1,6,0.2c16.9,1.2,32.4,7.3,44.5,16.7c3,2.4,5.8,4.9,8.4,7.7
								c10.3,10.9,16.9,24.8,18.1,40c0.1,1.6,0.2,3.3,0.2,4.9c0,2-0.1,3.9-0.3,5.8c-0.5,5.8-1.8,11.3-3.8,16.6h3.4
								c1.9-5.3,3.2-10.8,3.7-16.6c0.2-1.9,0.3-3.9,0.3-5.8C245.7,159.6,245.7,158,245.5,156.4z"/>
						</g>
					</g>
					<g>
						<ellipse class="st0" cx="165.3" cy="161.3" rx="5.5" ry="4.9"/>
						<ellipse class="st0" cx="149.7" cy="146.4" rx="3.1" ry="2.8"/>
						<ellipse class="st0" cx="165.3" cy="141.5" rx="3.1" ry="2.8"/>
						<ellipse class="st0" cx="182.9" cy="146.4" rx="3.1" ry="2.8"/>
						<ellipse class="st0" cx="187.3" cy="161.3" rx="3.1" ry="2.8"/>
						<path class="st0" d="M168.4,181.1c0,1.2-0.8,2.2-2,2.6c-0.3,0.1-0.7,0.2-1.1,0.2s-0.7-0.1-1.1-0.2c-1.2-0.4-2-1.4-2-2.6
							c0-1.5,1.4-2.8,3.1-2.8S168.4,179.6,168.4,181.1z"/>
						<ellipse class="st0" cx="149.2" cy="175.8" rx="3.1" ry="2.8"/>
						<ellipse class="st0" cx="143.1" cy="161.8" rx="3.1" ry="2.8"/>
						<ellipse class="st0" cx="180.4" cy="175.8" rx="3.1" ry="2.8"/>
					</g>
				</g>
			</g>
		</g>
		<path class="st0" d="M238.4,183.7c-3.2,8.5-8.3,16.4-14.7,23l-25.6-23H238.4z"/>
		<path class="st0" d="M159.3,195v35.6c-16.7-1.2-31.9-7.1-43.9-16.3l28-25.2c0.4,0.3,0.9,0.5,1.3,0.8c3.9,2.3,8.4,4,13.1,4.8
			C158.3,194.8,158.8,194.9,159.3,195z"/>
		<path class="st0" d="M164.2,183.7h2.2c-0.3,0.1-0.7,0.2-1.1,0.2S164.6,183.8,164.2,183.7z"/>
		<path class="st0" d="M215.2,214.3c-12,9.2-27.2,15.1-43.9,16.3V195c0.5-0.1,1-0.1,1.5-0.2c4.8-0.9,9.2-2.5,13.1-4.8
			c0.4-0.3,0.9-0.5,1.3-0.8L215.2,214.3z"/>
		<path class="st0" d="M132.5,183.7l-25.6,23c-6.4-6.7-11.4-14.5-14.7-23H132.5z"/>
		<path class="st0" d="M320.4,183.7c-0.3,77-69.6,139.3-155.1,139.3c-85.5,0-154.8-62.3-155.1-139.3h67.1
			c3.8,12.1,10.5,23,19.5,32.1l-9.3,8.4c-3.9-2.3-9.3-1.9-12.8,1.2l-21.9,19.8c-4,3.6-4,9.3,0,12.9l5.6,5c4,3.6,10.4,3.6,14.3,0
			l21.9-19.8c3.5-3.1,3.9-7.9,1.3-11.5l9.3-8.4c14.6,11.5,33.4,18.8,54,20v11.9c-4.5,0.5-8.1,4.4-8.1,9.1v28c0,5,4.1,9.1,9.1,9.1
			h9.9c5,0,9.1-4.1,9.1-9.1v-28c0-4.7-3.5-8.6-8.1-9.1v-11.9c20.6-1.2,39.4-8.6,54-20l9.3,8.4c-2.6,3.5-2.2,8.4,1.3,11.5l21.9,19.8
			c4,3.6,10.4,3.6,14.3,0l5.6-5c4-3.6,4-9.4,0-12.9l-21.9-19.8c-3.5-3.1-8.8-3.5-12.8-1.2l-9.3-8.4c9-9.1,15.7-20.1,19.5-32.1H320.4
			z"/>
	</g>
	<g>
		<path class="st0" d="M363.5,160.6c-8-5.6-12-13.6-12-24v-7.3h30.4v8.8c0,8.3,5.5,12.5,16.6,12.5c5.5,0,9.6-1,12.4-3
			c2.8-2,4.2-5.3,4.2-9.8c0-5.4-1.9-10.1-5.8-14.2c-3.9-4.1-11.1-9-21.6-14.8c-13.2-7.3-22.5-14-27.7-19.9s-7.9-12.6-7.9-20.1
			c0-10.2,4.1-18,12.3-23.6c8.2-5.6,20-8.4,35.6-8.4c15.4,0,27,2.8,34.9,8.4c7.9,5.6,11.8,13.6,11.8,24v5.3h-30.4v-6.6
			c0-4.4-1.4-7.6-4.1-9.6c-2.7-2-6.7-3-12-3c-10.7,0-16.1,4.1-16.1,12.3c0,4.7,2,9,6,13c4,4,11.2,8.9,21.8,14.7
			c13.4,7.3,22.7,14,27.7,20c5.1,6,7.6,13,7.6,21.1c0,10.5-4.1,18.6-12.4,24.2c-8.3,5.6-20.3,8.4-36.1,8.4
			C383.2,169,371.5,166.2,363.5,160.6z"/>
		<path class="st0" d="M465.7,38.7H513c16,0,27.9,2.7,35.9,8.1c8,5.4,12,13.3,12,23.7v12.7c0,10.4-4,18.3-12,23.7
			c-8,5.4-19.9,8.1-35.9,8.1h-15.2v52.3h-32.1V38.7z M513,96.5c5.3,0,9.2-0.9,11.8-2.8c2.6-1.8,3.9-5,3.9-9.4V69.1
			c0-4.4-1.3-7.5-3.9-9.4c-2.6-1.8-6.6-2.8-11.8-2.8h-15.2v39.5H513z"/>
		<path class="st0" d="M588.6,160.5c-8.4-5.6-12.6-13.6-12.6-23.9V69.1c0-10.3,4.2-18.2,12.6-23.9c8.4-5.6,20.4-8.4,36.2-8.4
			c15.8,0,27.8,2.8,36.2,8.4c8.4,5.6,12.6,13.6,12.6,23.9v67.5c0,10.3-4.2,18.2-12.6,23.9c-8.4,5.6-20.4,8.4-36.2,8.4
			C609,169,596.9,166.2,588.6,160.5z M641.4,138V67.8c0-8.4-5.5-12.7-16.6-12.7c-11.1,0-16.6,4.2-16.6,12.7V138
			c0,8.4,5.5,12.7,16.6,12.7C635.9,150.6,641.4,146.4,641.4,138z"/>
		<path class="st0" d="M705.3,160.5c-8.4-5.6-12.6-13.6-12.6-23.9V69.1c0-10.3,4.2-18.2,12.6-23.9c8.4-5.6,20.4-8.4,36.2-8.4
			c15.8,0,27.8,2.8,36.2,8.4c8.4,5.6,12.6,13.6,12.6,23.9v67.5c0,10.3-4.2,18.2-12.6,23.9c-8.4,5.6-20.4,8.4-36.2,8.4
			C725.8,169,713.7,166.2,705.3,160.5z M758.2,138V67.8c0-8.4-5.5-12.7-16.6-12.7c-11.1,0-16.6,4.2-16.6,12.7V138
			c0,8.4,5.5,12.7,16.6,12.7C752.6,150.6,758.2,146.4,758.2,138z"/>
		<path class="st0" d="M811.9,38.7h40.3l31.2,76.9h0.6V38.7h28.6v128.5h-33l-38.5-93.8h-0.6v93.8h-28.6V38.7z"/>
	</g>
	<g>
		<path class="st0" d="M331.9,260.8c-1.4,0-2.6-0.1-3.8-0.3c-1.2-0.2-2.3-0.5-3.4-0.9c-1-0.4-2-0.9-2.9-1.4l2.4-2.3
			c1.1,0.7,2.2,1.2,3.5,1.6c1.3,0.3,2.7,0.5,4.2,0.5c2,0,3.6-0.3,4.7-0.9c1.1-0.6,1.7-1.4,1.7-2.4v0c0-0.8-0.3-1.4-0.8-1.8
			c-0.6-0.4-1.3-0.7-2.2-0.9c-0.9-0.2-1.9-0.4-3-0.5c-1-0.1-2.1-0.3-3.2-0.5c-1.1-0.2-2-0.5-2.9-0.9c-0.9-0.4-1.6-1-2.2-1.7
			c-0.5-0.7-0.8-1.7-0.8-2.9v0c0-2,0.9-3.5,2.6-4.6c1.7-1.1,4.2-1.6,7.3-1.6c1.5,0,3,0.2,4.4,0.5c1.4,0.4,2.8,0.9,4.2,1.7l-2.2,2.3
			c-1.1-0.6-2.1-1-3.2-1.3c-1.1-0.3-2.1-0.4-3.2-0.4c-1.9,0-3.4,0.3-4.4,0.9c-1.1,0.6-1.6,1.4-1.6,2.4v0c0,0.8,0.3,1.4,0.9,1.8
			c0.6,0.4,1.4,0.7,2.4,0.9c1,0.2,2.1,0.4,3.2,0.6c1,0.2,2,0.3,3.1,0.6c1,0.2,1.9,0.5,2.8,0.9c0.8,0.4,1.5,1,2,1.7
			c0.5,0.7,0.8,1.6,0.8,2.8v0c0,1.9-0.9,3.4-2.7,4.5C337.7,260.3,335.2,260.8,331.9,260.8z"/>
		<path class="st0" d="M347.3,260.6v-21.1h3.9v21.1H347.3z M349.2,242.4v-2.8h16v2.8H349.2z M349.2,251.6v-2.8h13.9v2.8H349.2z
			 M349.2,260.6v-2.8h16v2.8H349.2z"/>
		<path class="st0" d="M368.1,260.6l10.3-21.1h3.3l10.3,21.1h-4.2l-7.7-17l-7.7,17H368.1z M372.8,256v-2.8h14.6v2.8H372.8z"/>
		<path class="st0" d="M396.2,260.6v-21.1h3.9v21.1H396.2z M398.1,242.4v-2.8h15.6v2.8H398.1z M398.1,251.8v-2.8h13.5v2.8H398.1z"/>
		<path class="st0" d="M413.5,260.6l10.3-21.1h3.3l10.3,21.1h-4.2l-7.7-17l-7.7,17H413.5z M418.2,256v-2.8h14.6v2.8H418.2z"/>
		<path class="st0" d="M441.6,260.6v-21.1h3.9v21.1H441.6z M443.3,251.7v-2.8h9.5c1.1,0,2-0.3,2.7-0.9c0.7-0.6,1-1.4,1-2.4
			c0-1-0.3-1.8-1-2.4c-0.7-0.6-1.6-0.9-2.7-0.9h-9.5v-2.8h9.3c1.6,0,3,0.3,4.3,0.8c1.2,0.5,2.2,1.2,2.8,2.1c0.7,0.9,1,2,1,3.2
			c0,1.2-0.3,2.3-1,3.2c-0.7,0.9-1.6,1.6-2.8,2.1c-1.2,0.5-2.6,0.8-4.2,0.8H443.3z M457.2,260.6l-6.4-9.6l3.9-0.7l7.1,10.2H457.2z"
			/>
		<path class="st0" d="M467.1,260.6v-21.1h3.9v21.1H467.1z M469,242.4v-2.8h16v2.8H469z M469,251.6v-2.8h13.9v2.8H469z M469,260.6
			v-2.8h16v2.8H469z"/>
		<path class="st0" d="M490.6,260.6v-21.1h3.9v21.1H490.6z M492.3,251.7v-2.8h9.5c1.1,0,2-0.3,2.7-0.9c0.7-0.6,1-1.4,1-2.4
			c0-1-0.3-1.8-1-2.4c-0.7-0.6-1.6-0.9-2.7-0.9h-9.5v-2.8h9.3c1.6,0,3,0.3,4.3,0.8c1.2,0.5,2.2,1.2,2.8,2.1c0.7,0.9,1,2,1,3.2
			c0,1.2-0.3,2.3-1,3.2c-0.7,0.9-1.6,1.6-2.8,2.1c-1.2,0.5-2.6,0.8-4.2,0.8H492.3z M506.2,260.6l-6.4-9.6l3.9-0.7l7.1,10.2H506.2z"
			/>
		<path class="st0" d="M514.1,247.5v-7.9h4.1v4.7L514.1,247.5z"/>
		<path class="st0" d="M530.3,260.8c-1.4,0-2.6-0.1-3.8-0.3c-1.2-0.2-2.3-0.5-3.4-0.9c-1-0.4-2-0.9-2.9-1.4l2.4-2.3
			c1.1,0.7,2.2,1.2,3.5,1.6c1.3,0.3,2.7,0.5,4.2,0.5c2,0,3.6-0.3,4.7-0.9c1.1-0.6,1.7-1.4,1.7-2.4v0c0-0.8-0.3-1.4-0.8-1.8
			c-0.6-0.4-1.3-0.7-2.2-0.9c-0.9-0.2-1.9-0.4-3-0.5c-1-0.1-2.1-0.3-3.2-0.5s-2-0.5-2.9-0.9c-0.9-0.4-1.6-1-2.2-1.7
			c-0.5-0.7-0.8-1.7-0.8-2.9v0c0-2,0.9-3.5,2.6-4.6c1.7-1.1,4.2-1.6,7.3-1.6c1.5,0,3,0.2,4.4,0.5c1.4,0.4,2.8,0.9,4.2,1.7l-2.2,2.3
			c-1.1-0.6-2.1-1-3.2-1.3c-1.1-0.3-2.1-0.4-3.2-0.4c-1.9,0-3.4,0.3-4.4,0.9c-1.1,0.6-1.6,1.4-1.6,2.4v0c0,0.8,0.3,1.4,0.9,1.8
			c0.6,0.4,1.4,0.7,2.4,0.9c1,0.2,2.1,0.4,3.2,0.6c1,0.2,2,0.3,3.1,0.6c1,0.2,1.9,0.5,2.8,0.9c0.8,0.4,1.5,1,2,1.7
			c0.5,0.7,0.8,1.6,0.8,2.8v0c0,1.9-0.9,3.4-2.7,4.5C536.1,260.3,533.6,260.8,530.3,260.8z"/>
		<path class="st0" d="M556.6,260.6v-21.1h3.9v21.1H556.6z M558.6,252.4v-2.8h8.9c1.3,0,2.3-0.3,3.1-1c0.8-0.7,1.2-1.5,1.2-2.6
			c0-1.1-0.4-2-1.2-2.7c-0.8-0.7-1.8-1-3.1-1h-8.9v-2.8h8.8c1.7,0,3.2,0.3,4.4,0.8c1.3,0.5,2.2,1.3,2.9,2.3c0.7,1,1,2.1,1,3.4
			c0,1.3-0.3,2.4-1,3.4c-0.7,1-1.7,1.7-2.9,2.2c-1.3,0.5-2.7,0.8-4.4,0.8H558.6z"/>
		<path class="st0" d="M580.6,260.6v-21.1h3.9v21.1H580.6z M582.4,251.7v-2.8h9.5c1.1,0,2-0.3,2.7-0.9c0.7-0.6,1-1.4,1-2.4
			c0-1-0.3-1.8-1-2.4c-0.7-0.6-1.6-0.9-2.7-0.9h-9.5v-2.8h9.3c1.6,0,3,0.3,4.3,0.8c1.2,0.5,2.2,1.2,2.8,2.1c0.7,0.9,1,2,1,3.2
			c0,1.2-0.3,2.3-1,3.2s-1.6,1.6-2.8,2.1c-1.2,0.5-2.6,0.8-4.2,0.8H582.4z M596.3,260.6l-6.4-9.6l3.9-0.7l7.1,10.2H596.3z"/>
		<path class="st0" d="M614.7,260.8c-2,0-3.7-0.3-5.2-1c-1.5-0.6-2.6-1.5-3.4-2.7c-0.8-1.2-1.2-2.5-1.2-4.1v-6
			c0-1.6,0.4-2.9,1.2-4.1c0.8-1.2,1.9-2.1,3.4-2.7c1.5-0.6,3.2-1,5.2-1c2,0,3.7,0.3,5.2,1c1.5,0.6,2.6,1.5,3.4,2.7
			c0.8,1.2,1.2,2.5,1.2,4.1v6c0,1.6-0.4,2.9-1.2,4.1c-0.8,1.2-2,2.1-3.4,2.7C618.3,260.5,616.6,260.8,614.7,260.8z M614.7,257.9
			c1.7,0,3.1-0.4,4.2-1.3c1.1-0.9,1.6-2,1.6-3.4V247c0-1.4-0.5-2.6-1.6-3.5c-1.1-0.9-2.5-1.3-4.2-1.3c-1.7,0-3.1,0.4-4.2,1.3
			c-1.1,0.9-1.6,2-1.6,3.5v6.2c0,1.4,0.5,2.6,1.6,3.4C611.5,257.5,612.9,257.9,614.7,257.9z"/>
		<path class="st0" d="M639.4,249.3h9.7v3.7c0,1.6-0.4,3-1.2,4.2c-0.8,1.2-1.9,2.1-3.4,2.8c-1.5,0.7-3.2,1-5.1,1
			c-2,0-3.7-0.3-5.2-0.9c-1.5-0.6-2.6-1.5-3.4-2.6c-0.8-1.1-1.2-2.4-1.2-3.9v-6.2c0-1.6,0.4-3,1.2-4.1c0.8-1.2,1.9-2.1,3.4-2.7
			c1.5-0.7,3.2-1,5.1-1c1.6,0,3.1,0.3,4.4,0.8c1.3,0.5,2.5,1.3,3.4,2.2c0.9,0.9,1.5,2,1.8,3.3h-4.2c-0.4-1.1-1.1-1.9-2.1-2.5
			s-2.1-0.9-3.3-0.9c-1.7,0-3.1,0.5-4.2,1.4c-1,0.9-1.6,2.1-1.6,3.6v6.2c0,1.4,0.5,2.5,1.6,3.3c1.1,0.8,2.5,1.2,4.3,1.2
			c1.7,0,3.1-0.4,4.2-1.3c1-0.9,1.6-2.1,1.6-3.6v-0.9h-5.6V249.3z"/>
		<path class="st0" d="M655,260.6v-21.1h3.9v21.1H655z M656.7,251.7v-2.8h9.5c1.1,0,2-0.3,2.7-0.9c0.7-0.6,1-1.4,1-2.4
			c0-1-0.3-1.8-1-2.4c-0.7-0.6-1.6-0.9-2.7-0.9h-9.5v-2.8h9.3c1.6,0,3,0.3,4.3,0.8c1.2,0.5,2.2,1.2,2.8,2.1c0.7,0.9,1,2,1,3.2
			c0,1.2-0.3,2.3-1,3.2c-0.7,0.9-1.6,1.6-2.8,2.1c-1.2,0.5-2.6,0.8-4.2,0.8H656.7z M670.6,260.6l-6.4-9.6l3.9-0.7l7.1,10.2H670.6z"
			/>
		<path class="st0" d="M676.9,260.6l10.3-21.1h3.3l10.3,21.1h-4.2l-7.7-17l-7.7,17H676.9z M681.6,256v-2.8h14.6v2.8H681.6z"/>
		<path class="st0" d="M716.8,253.5l8.2-13.9h3.7v21.1h-3.8v-15.8l0.2,0.9l-6.9,11.9h-2.7l-6.9-11.6l0.2-1.2v15.8H705v-21.1h3.7
			L716.8,253.5z"/>
		<path class="st0" d="M755.3,260.8c-2,0-3.7-0.3-5.2-1c-1.5-0.6-2.6-1.5-3.4-2.7c-0.8-1.2-1.2-2.5-1.2-4.1v-6
			c0-1.6,0.4-2.9,1.2-4.1c0.8-1.2,1.9-2.1,3.4-2.7c1.5-0.6,3.2-1,5.2-1c2,0,3.7,0.3,5.2,1c1.5,0.6,2.6,1.5,3.4,2.7
			c0.8,1.2,1.2,2.5,1.2,4.1v6c0,1.6-0.4,2.9-1.2,4.1c-0.8,1.2-1.9,2.1-3.4,2.7C758.9,260.5,757.2,260.8,755.3,260.8z M755.3,257.9
			c1.7,0,3.1-0.4,4.2-1.3c1.1-0.9,1.6-2,1.6-3.4V247c0-1.4-0.5-2.6-1.6-3.5c-1.1-0.9-2.5-1.3-4.2-1.3c-1.7,0-3.1,0.4-4.2,1.3
			c-1.1,0.9-1.6,2-1.6,3.5v6.2c0,1.4,0.5,2.6,1.6,3.4C752.1,257.5,753.5,257.9,755.3,257.9z"/>
		<path class="st0" d="M771,260.6v-21.1h3.5l13.6,16.3l-0.5,0.4v-16.7h3.9v21.1H788l-13.6-16l0.5-0.4v16.4H771z"/>
		<path class="st0" d="M805.3,256.1l5.7-16.5h2.7l5.7,16.5l4.9-16.5h4.1l-6.8,21.1h-4l-5.1-14.7l-5.4,14.7h-4l-6.8-21.1h4.1
			L805.3,256.1z"/>
		<path class="st0" d="M828,260.6l10.3-21.1h3.3l10.3,21.1h-4.2l-7.7-17l-7.7,17H828z M832.7,256v-2.8h14.6v2.8H832.7z"/>
		<path class="st0" d="M856.1,260.6v-21.1h3.9v21.1H856.1z M857.8,251.7v-2.8h9.5c1.1,0,2-0.3,2.7-0.9c0.7-0.6,1-1.4,1-2.4
			c0-1-0.3-1.8-1-2.4c-0.7-0.6-1.6-0.9-2.7-0.9h-9.5v-2.8h9.3c1.6,0,3,0.3,4.3,0.8c1.2,0.5,2.2,1.2,2.8,2.1c0.7,0.9,1,2,1,3.2
			c0,1.2-0.3,2.3-1,3.2c-0.7,0.9-1.6,1.6-2.8,2.1c-1.2,0.5-2.6,0.8-4.2,0.8H857.8z M871.7,260.6l-6.4-9.6l3.9-0.7l7.1,10.2H871.7z"
			/>
		<path class="st0" d="M881.6,260.6v-21.1h3.9v21.1H881.6z M884.3,260.6v-2.8h6.3c2.1,0,3.6-0.4,4.8-1.2c1.1-0.8,1.7-1.9,1.7-3.4
			V247c0-1.5-0.6-2.6-1.7-3.4c-1.1-0.8-2.7-1.2-4.8-1.2h-6.3v-2.8h6.2c3.4,0,6,0.7,7.8,2c1.8,1.3,2.8,3.2,2.8,5.6v6
			c0,1.6-0.4,3-1.2,4.1c-0.8,1.1-2,2-3.6,2.6c-1.6,0.6-3.5,0.9-5.7,0.9H884.3z"/>
		<path class="st0" d="M915,260.8c-1.4,0-2.6-0.1-3.8-0.3c-1.2-0.2-2.3-0.5-3.4-0.9c-1-0.4-2-0.9-2.9-1.4l2.4-2.3
			c1.1,0.7,2.2,1.2,3.5,1.6c1.3,0.3,2.7,0.5,4.2,0.5c2,0,3.6-0.3,4.7-0.9c1.1-0.6,1.7-1.4,1.7-2.4v0c0-0.8-0.3-1.4-0.8-1.8
			c-0.6-0.4-1.3-0.7-2.2-0.9c-0.9-0.2-1.9-0.4-3-0.5c-1-0.1-2.1-0.3-3.2-0.5s-2-0.5-2.9-0.9c-0.9-0.4-1.6-1-2.2-1.7
			c-0.5-0.7-0.8-1.7-0.8-2.9v0c0-2,0.9-3.5,2.6-4.6c1.7-1.1,4.2-1.6,7.3-1.6c1.5,0,3,0.2,4.4,0.5c1.4,0.4,2.8,0.9,4.2,1.7l-2.2,2.3
			c-1.1-0.6-2.1-1-3.2-1.3c-1.1-0.3-2.1-0.4-3.2-0.4c-1.9,0-3.4,0.3-4.4,0.9c-1.1,0.6-1.6,1.4-1.6,2.4v0c0,0.8,0.3,1.4,0.9,1.8
			c0.6,0.4,1.4,0.7,2.4,0.9c1,0.2,2.1,0.4,3.2,0.6c1,0.2,2,0.3,3.1,0.6c1,0.2,1.9,0.5,2.8,0.9c0.8,0.4,1.5,1,2,1.7
			c0.5,0.7,0.8,1.6,0.8,2.8v0c0,1.9-0.9,3.4-2.7,4.5C920.7,260.3,918.2,260.8,915,260.8z"/>
		<path class="st0" d="M372.7,278v-2.8h19.6v2.8H372.7z M380.6,296.2v-19.3h3.9v19.3H380.6z"/>
		<path class="st0" d="M404.6,296.4c-2,0-3.7-0.3-5.2-1c-1.5-0.6-2.6-1.5-3.4-2.7c-0.8-1.2-1.2-2.5-1.2-4.1v-6
			c0-1.6,0.4-2.9,1.2-4.1c0.8-1.2,1.9-2.1,3.4-2.7c1.5-0.6,3.2-1,5.2-1c2,0,3.7,0.3,5.2,1c1.5,0.6,2.6,1.5,3.4,2.7
			c0.8,1.2,1.2,2.5,1.2,4.1v6c0,1.6-0.4,2.9-1.2,4.1c-0.8,1.2-2,2.1-3.4,2.7C408.3,296.1,406.6,296.4,404.6,296.4z M404.6,293.5
			c1.7,0,3.1-0.4,4.2-1.3c1.1-0.9,1.6-2,1.6-3.4v-6.2c0-1.4-0.5-2.6-1.6-3.5c-1.1-0.9-2.5-1.3-4.2-1.3c-1.7,0-3.1,0.4-4.2,1.3
			c-1.1,0.9-1.6,2-1.6,3.5v6.2c0,1.4,0.5,2.6,1.6,3.4C401.5,293.1,402.9,293.5,404.6,293.5z"/>
		<path class="st0" d="M440.5,296.4c-2,0-3.7-0.3-5.2-1c-1.5-0.6-2.6-1.5-3.4-2.7c-0.8-1.2-1.2-2.5-1.2-4.1v-6
			c0-1.6,0.4-2.9,1.2-4.1c0.8-1.2,1.9-2.1,3.4-2.7c1.5-0.6,3.2-1,5.2-1c2,0,3.7,0.3,5.2,1c1.5,0.6,2.6,1.5,3.4,2.7
			c0.8,1.2,1.2,2.5,1.2,4.1v6c0,1.6-0.4,2.9-1.2,4.1c-0.8,1.2-1.9,2.1-3.4,2.7C444.2,296.1,442.4,296.4,440.5,296.4z M440.5,293.5
			c1.7,0,3.1-0.4,4.2-1.3c1.1-0.9,1.6-2,1.6-3.4v-6.2c0-1.4-0.5-2.6-1.6-3.5c-1.1-0.9-2.5-1.3-4.2-1.3c-1.7,0-3.1,0.4-4.2,1.3
			c-1.1,0.9-1.6,2-1.6,3.5v6.2c0,1.4,0.5,2.6,1.6,3.4C437.3,293.1,438.7,293.5,440.5,293.5z"/>
		<path class="st0" d="M465.2,296.4c-3.1,0-5.5-0.7-7.2-2.1c-1.7-1.4-2.6-3.3-2.6-5.8v-13.4h3.9v13.5c0,1.5,0.5,2.7,1.5,3.6
			c1,0.8,2.5,1.3,4.3,1.3c1.9,0,3.3-0.4,4.4-1.3c1-0.8,1.5-2,1.5-3.6v-13.5h3.9v13.4c0,2.5-0.9,4.4-2.6,5.8
			C470.7,295.8,468.3,296.4,465.2,296.4z"/>
		<path class="st0" d="M477.7,278v-2.8h19.6v2.8H477.7z M485.5,296.2v-19.3h3.9v19.3H485.5z"/>
		<path class="st0" d="M508.8,296.4c-1.4,0-2.6-0.1-3.8-0.3c-1.2-0.2-2.3-0.5-3.4-0.9c-1-0.4-2-0.9-2.9-1.4l2.4-2.3
			c1.1,0.7,2.2,1.2,3.5,1.6c1.3,0.3,2.7,0.5,4.2,0.5c2,0,3.6-0.3,4.7-0.9c1.1-0.6,1.7-1.4,1.7-2.4v0c0-0.8-0.3-1.4-0.8-1.8
			c-0.6-0.4-1.3-0.7-2.2-0.9c-0.9-0.2-1.9-0.4-3-0.5c-1-0.1-2.1-0.3-3.2-0.5s-2-0.5-2.9-0.9c-0.9-0.4-1.6-1-2.2-1.7
			c-0.5-0.7-0.8-1.7-0.8-2.9v0c0-2,0.9-3.5,2.6-4.6c1.7-1.1,4.2-1.6,7.3-1.6c1.5,0,3,0.2,4.4,0.5c1.4,0.4,2.8,0.9,4.2,1.7l-2.2,2.3
			c-1.1-0.6-2.1-1-3.2-1.3c-1.1-0.3-2.1-0.4-3.2-0.4c-1.9,0-3.4,0.3-4.4,0.9c-1.1,0.6-1.6,1.4-1.6,2.4v0c0,0.8,0.3,1.4,0.9,1.8
			c0.6,0.4,1.4,0.7,2.4,0.9c1,0.2,2.1,0.4,3.2,0.6c1,0.2,2,0.3,3.1,0.6c1,0.2,1.9,0.5,2.8,0.9c0.8,0.4,1.5,1,2,1.7
			c0.5,0.7,0.8,1.6,0.8,2.8v0c0,1.9-0.9,3.4-2.7,4.5C514.5,295.9,512,296.4,508.8,296.4z"/>
		<path class="st0" d="M520.7,278v-2.8h19.6v2.8H520.7z M528.6,296.2v-19.3h3.9v19.3H528.6z"/>
		<path class="st0" d="M539.8,296.2l10.3-21.1h3.3l10.3,21.1h-4.2l-7.7-17l-7.7,17H539.8z M544.5,291.6v-2.8h14.6v2.8H544.5z"/>
		<path class="st0" d="M567.8,296.2v-21.1h3.5l13.6,16.3l-0.5,0.4v-16.7h3.9v21.1h-3.6l-13.6-16l0.5-0.4v16.4H567.8z"/>
		<path class="st0" d="M595.3,296.2v-21.1h3.9v21.1H595.3z M597.9,296.2v-2.8h6.3c2.1,0,3.6-0.4,4.8-1.2c1.1-0.8,1.7-1.9,1.7-3.4
			v-6.2c0-1.5-0.6-2.6-1.7-3.4c-1.1-0.8-2.7-1.2-4.8-1.2h-6.3v-2.8h6.2c3.4,0,6,0.7,7.8,2c1.8,1.3,2.8,3.2,2.8,5.6v6
			c0,1.6-0.4,3-1.2,4.1c-0.8,1.1-2,2-3.6,2.6c-1.6,0.6-3.5,0.9-5.7,0.9H597.9z"/>
		<path class="st0" d="M624.6,275.2v21.1h-3.9v-21.1H624.6z"/>
		<path class="st0" d="M631.4,296.2v-21.1h3.5l13.6,16.3l-0.5,0.4v-16.7h3.9v21.1h-3.6l-13.6-16l0.5-0.4v16.4H631.4z"/>
		<path class="st0" d="M668.3,284.9h9.7v3.7c0,1.6-0.4,3-1.2,4.2c-0.8,1.2-1.9,2.1-3.4,2.8c-1.5,0.7-3.2,1-5.1,1
			c-2,0-3.7-0.3-5.2-0.9c-1.5-0.6-2.6-1.5-3.4-2.6c-0.8-1.1-1.2-2.4-1.2-3.9v-6.2c0-1.6,0.4-3,1.2-4.1c0.8-1.2,1.9-2.1,3.4-2.7
			c1.5-0.7,3.2-1,5.1-1c1.6,0,3.1,0.3,4.4,0.8c1.3,0.5,2.5,1.3,3.4,2.2c0.9,0.9,1.5,2,1.8,3.3h-4.2c-0.4-1.1-1.1-1.9-2.1-2.5
			c-1-0.6-2.1-0.9-3.3-0.9c-1.7,0-3.1,0.5-4.2,1.4c-1,0.9-1.6,2.1-1.6,3.6v6.2c0,1.4,0.5,2.5,1.6,3.3c1.1,0.8,2.5,1.2,4.3,1.2
			c1.7,0,3.1-0.4,4.2-1.3c1-0.9,1.6-2.1,1.6-3.6v-0.9h-5.6V284.9z"/>
		<path class="st0" d="M694.8,296.2v-21.1h3.5l13.6,16.3l-0.5,0.4v-16.7h3.9v21.1h-3.6l-13.6-16l0.5-0.4v16.4H694.8z"/>
		<path class="st0" d="M731.6,296.4c-3.1,0-5.5-0.7-7.2-2.1c-1.7-1.4-2.6-3.3-2.6-5.8v-13.4h3.9v13.5c0,1.5,0.5,2.7,1.5,3.6
			s2.5,1.3,4.3,1.3c1.9,0,3.3-0.4,4.4-1.3c1-0.8,1.5-2,1.5-3.6v-13.5h3.9v13.4c0,2.5-0.9,4.4-2.6,5.8
			C737.2,295.8,734.7,296.4,731.6,296.4z"/>
		<path class="st0" d="M744.1,278v-2.8h19.6v2.8H744.1z M752,296.2v-19.3h3.9v19.3H752z"/>
		<path class="st0" d="M767.6,296.2v-21.1h3.9v21.1H767.6z M769.3,287.3v-2.8h9.5c1.1,0,2-0.3,2.7-0.9c0.7-0.6,1-1.4,1-2.4
			c0-1-0.3-1.8-1-2.4c-0.7-0.6-1.6-0.9-2.7-0.9h-9.5v-2.8h9.3c1.6,0,3,0.3,4.3,0.8c1.2,0.5,2.2,1.2,2.8,2.1c0.7,0.9,1,2,1,3.2
			c0,1.2-0.3,2.3-1,3.2c-0.7,0.9-1.6,1.6-2.8,2.1c-1.2,0.5-2.6,0.8-4.2,0.8H769.3z M783.2,296.2l-6.4-9.6l3.9-0.7l7.1,10.2H783.2z"
			/>
		<path class="st0" d="M797.1,275.2v21.1h-3.9v-21.1H797.1z"/>
		<path class="st0" d="M801.6,278v-2.8h19.6v2.8H801.6z M809.5,296.2v-19.3h3.9v19.3H809.5z"/>
		<path class="st0" d="M829,275.2v21.1h-3.9v-21.1H829z"/>
		<path class="st0" d="M845.1,296.4c-2,0-3.7-0.3-5.2-1c-1.5-0.6-2.6-1.5-3.4-2.7c-0.8-1.2-1.2-2.5-1.2-4.1v-6
			c0-1.6,0.4-2.9,1.2-4.1c0.8-1.2,1.9-2.1,3.4-2.7c1.5-0.6,3.2-1,5.2-1c2,0,3.7,0.3,5.2,1c1.5,0.6,2.6,1.5,3.4,2.7
			c0.8,1.2,1.2,2.5,1.2,4.1v6c0,1.6-0.4,2.9-1.2,4.1c-0.8,1.2-2,2.1-3.4,2.7C848.8,296.1,847.1,296.4,845.1,296.4z M845.1,293.5
			c1.7,0,3.1-0.4,4.2-1.3c1.1-0.9,1.6-2,1.6-3.4v-6.2c0-1.4-0.5-2.6-1.6-3.5c-1.1-0.9-2.5-1.3-4.2-1.3c-1.7,0-3.1,0.4-4.2,1.3
			c-1.1,0.9-1.6,2-1.6,3.5v6.2c0,1.4,0.5,2.6,1.6,3.4C842,293.1,843.4,293.5,845.1,293.5z"/>
		<path class="st0" d="M860.9,296.2v-21.1h3.5l13.6,16.3l-0.5,0.4v-16.7h3.9v21.1h-3.6l-13.6-16l0.5-0.4v16.4H860.9z"/>
	</g>
</g>
</svg>
